<svg width="68" height="68" viewBox="0 0 68 68" fill="none" xmlns="http://www.w3.org/2000/svg">
<path d="M34 0C15.222 0 0 15.222 0 34C0 52.778 15.222 68 34 68C52.778 68 68 52.778 68 34C68 15.222 52.778 0 34 0ZM34 66.9453C15.8051 66.9453 1.05472 52.1949 1.05472 34C1.05472 15.8051 15.8064 1.05472 34 1.05472C52.1936 1.05472 66.9453 15.8051 66.9453 34C66.9453 52.1949 52.1949 66.9453 34 66.9453Z" fill="#7DBA7D"/>
<path d="M19.9598 62.0397L21.2516 59.1494L21.912 59.4455L20.8638 61.7921L21.8543 62.235L22.1439 61.6414C22.3417 61.2379 22.5226 60.9195 22.6876 60.6889C22.854 60.4583 23.0283 60.3011 23.2117 60.2199C23.3952 60.1386 23.5982 60.1478 23.8184 60.2461C23.9088 60.2867 24.0123 60.3522 24.1289 60.4387L23.8354 60.9863C23.8052 60.9588 23.7673 60.9365 23.7227 60.9169C23.5629 60.8461 23.4096 60.8894 23.2615 61.0492C23.1135 61.2091 22.9418 61.4868 22.7453 61.8812L22.1793 63.0368L19.9598 62.0397Z" fill="#7DBA7D"/>
<path d="M17.9251 57.8641L18.2317 57.3623L20.3241 58.6411L18.6732 61.3427L16.6319 60.0954L16.9385 59.5936L18.3588 60.461L18.7178 59.874L17.4639 59.1075L17.7613 58.6201L19.0152 59.3866L19.3964 58.7603L17.9251 57.8641Z" fill="#7DBA7D"/>
<path d="M13.279 57.5261L15.2627 55.0576L15.8339 55.5162L15.0216 56.5277L16.1431 57.4291L16.9554 56.4176L17.5267 56.8762L15.543 59.3446L14.9718 58.8861L15.754 57.9139L14.6324 57.0125L13.8502 57.9846L13.279 57.5261Z" fill="#7DBA7D"/>
<path d="M12.1863 56.5146L11.6871 55.984L13.1899 54.5729L10.6533 54.8834L10.183 54.3829L12.4916 52.2158L12.9881 52.7438L11.488 54.1523L14.0232 53.8444L14.4962 54.3502L12.1863 56.5146Z" fill="#7DBA7D"/>
<path d="M7.57043 50.853L10.1594 49.0278L10.5813 49.6266L9.52003 50.3747L10.3494 51.5513L11.4107 50.8032L11.8326 51.4019L9.24357 53.2258L8.82169 52.627L9.84234 51.9077L9.01429 50.7311L7.99363 51.4504L7.57043 50.853Z" fill="#7DBA7D"/>
<path d="M6.31259 47.3574L7.02273 48.686L9.28546 47.4701L9.62874 48.1121L6.83667 49.6044L5.78326 47.6339L6.31259 47.3574Z" fill="#7DBA7D"/>
<path d="M4.69191 44.6456C4.7037 44.4189 4.76921 44.2224 4.88844 44.056C5.00767 43.8882 5.17668 43.7625 5.39549 43.676C5.61168 43.5921 5.82131 43.5686 6.02308 43.6079C6.22485 43.6485 6.40697 43.7481 6.56944 43.9066C6.7306 44.0651 6.86162 44.2748 6.96643 44.5355L7.19965 45.129L8.01198 44.8093L8.28058 45.4906L5.33391 46.6502L4.8321 45.374C4.72466 45.1146 4.68012 44.8709 4.69191 44.6456ZM6.10432 44.377C5.97329 44.3049 5.82655 44.301 5.66408 44.3652C5.49769 44.4294 5.39287 44.5342 5.3457 44.6757C5.29853 44.8172 5.31688 44.9914 5.3968 45.1945L5.61561 45.7501L6.63757 45.3478L6.41877 44.7923C6.34146 44.5879 6.23665 44.449 6.10432 44.377Z" fill="#7DBA7D"/>
<path d="M5.90776 40.4603L6.27069 41.8845L6.99786 41.988L7.18391 42.7165L3.76687 42.1308L3.58868 41.4299L6.30737 39.2759L6.49736 40.0201L5.90776 40.4603ZM5.42429 40.8206L4.3735 41.6067L5.67192 41.7941L5.42429 40.8206Z" fill="#7DBA7D"/>
<path d="M5.25656 35.3975L6.50257 35.2612L6.57594 35.9347L5.92345 36.0054L6.16453 38.2262L6.81571 38.1555L6.88908 38.8289L5.64307 38.96L5.62997 38.8329C5.60245 38.6442 5.45047 38.5263 5.1727 38.4765C4.89494 38.4267 4.5045 38.4228 4.00137 38.4581L3.01216 38.5289L2.75012 36.1089L5.30373 35.8312L5.25656 35.3975ZM4.95128 37.8057C5.20939 37.8266 5.4033 37.879 5.53432 37.9655L5.38234 36.5583L3.42226 36.7706L3.54018 37.8502L4.00006 37.8135C4.37347 37.7873 4.69186 37.7834 4.95128 37.8057Z" fill="#7DBA7D"/>
<path d="M5.71255 33.949C5.56581 34.2071 5.36535 34.4062 5.11378 34.5491C4.86222 34.6919 4.57791 34.76 4.26477 34.7521C3.95163 34.7443 3.67255 34.6631 3.42623 34.5084C3.17991 34.3525 2.99255 34.1442 2.8576 33.8795C2.72396 33.6162 2.66107 33.3201 2.66893 32.9938C2.67679 32.72 2.73051 32.4724 2.8314 32.2536C2.93359 32.0348 3.07771 31.8513 3.26114 31.7046L3.68303 32.1854C3.43147 32.3938 3.30045 32.6558 3.29259 32.9729C3.28866 33.1694 3.32535 33.345 3.4092 33.5009C3.49043 33.6568 3.60835 33.78 3.76034 33.8691C3.91232 33.9595 4.08658 34.0066 4.2818 34.0106C4.47833 34.0145 4.6539 33.9778 4.80981 33.894C4.96573 33.8127 5.08889 33.6948 5.17798 33.5428C5.26708 33.3908 5.31556 33.2166 5.31949 33.0214C5.32735 32.7043 5.20943 32.4357 4.96311 32.2156L5.40989 31.7557C5.5907 31.9116 5.72565 32.1016 5.81737 32.3269C5.90777 32.5536 5.9497 32.8012 5.94446 33.0764C5.93791 33.4013 5.86061 33.6922 5.71255 33.949Z" fill="#7DBA7D"/>
<path d="M4.92905 29.6305L4.85305 30.131L6.11348 30.3223L6.00473 31.0429L2.87463 30.5673L2.98469 29.8467L4.25036 30.038L4.32897 29.5192L3.18777 28.5051L3.30438 27.7412L4.66045 28.9938L6.43972 28.1841L6.31394 29.0069L4.92905 29.6305Z" fill="#7DBA7D"/>
<path d="M6.50264 25.4047L6.09909 26.8184L6.67559 27.2744L6.46857 27.9963L3.81146 25.7689L4.01061 25.0719L7.44337 24.5806L7.23243 25.3195L6.50264 25.4047ZM5.90387 25.4741L4.60021 25.6235L5.62873 26.4398L5.90387 25.4741Z" fill="#7DBA7D"/>
<path d="M5.73872 20.5308L8.64739 21.7807L8.36045 22.445L7.58743 22.1135L7.32407 22.7293L7.87567 23.577L7.56908 24.2871L6.95197 23.3045C6.7882 23.4669 6.60084 23.5652 6.39382 23.6019C6.1855 23.6386 5.968 23.6058 5.74265 23.5089C5.5186 23.4119 5.34696 23.2783 5.22904 23.1066C5.11113 22.935 5.04823 22.7358 5.04168 22.5092C5.03513 22.2825 5.08754 22.0427 5.1976 21.7886L5.73872 20.5308ZM5.69941 22.5C5.74527 22.6389 5.85533 22.7463 6.02958 22.821C6.1986 22.8931 6.34928 22.9009 6.48161 22.8433C6.61394 22.7856 6.72138 22.6625 6.80261 22.4738L7.05548 21.8842L5.99945 21.4309L5.75313 22.0034C5.6719 22.1974 5.65355 22.3611 5.69941 22.5Z" fill="#7DBA7D"/>
<path d="M10.1214 18.8457C9.85544 18.9846 9.57898 19.0448 9.28811 19.0278C8.99725 19.0108 8.72603 18.9151 8.46923 18.7396C8.21243 18.5653 8.02245 18.3452 7.90191 18.0818C7.78137 17.8185 7.73551 17.5381 7.76827 17.2407C7.79971 16.9433 7.90846 16.659 8.09451 16.3877C8.28056 16.1165 8.50461 15.9134 8.77058 15.7759C9.03655 15.6383 9.31301 15.578 9.60387 15.5937C9.89474 15.6095 10.1673 15.7051 10.4241 15.8807C10.6809 16.0549 10.8682 16.2751 10.9901 16.541C11.1106 16.807 11.1565 17.0874 11.1237 17.3822C11.0936 17.6796 10.9848 17.9626 10.8001 18.2338C10.6127 18.5037 10.3874 18.7081 10.1214 18.8457ZM10.4621 17.3887C10.4752 17.2158 10.4437 17.0507 10.3651 16.8922C10.2865 16.7336 10.166 16.6 10.0048 16.4899C9.84364 16.3799 9.67463 16.317 9.49775 16.3C9.32349 16.2855 9.15709 16.3157 8.99987 16.3904C8.84395 16.465 8.71293 16.5816 8.60811 16.7349C8.50199 16.8882 8.44434 17.0533 8.42862 17.2263C8.4142 17.3992 8.44696 17.5643 8.52557 17.7228C8.60418 17.8814 8.72472 18.0137 8.88588 18.1251C9.04703 18.2351 9.21605 18.298 9.39293 18.3137C9.56981 18.3295 9.73358 18.298 9.89081 18.2233C10.048 18.1474 10.1777 18.0321 10.2826 17.8774C10.3887 17.7242 10.4477 17.5617 10.4621 17.3887Z" fill="#7DBA7D"/>
<path d="M9.91309 14.0202L11.6255 12.123L12.0579 12.5135L10.8342 13.8709L11.3176 14.3072L11.9059 13.656C12.1627 13.373 12.4169 13.2079 12.6698 13.1673C12.9226 13.1254 13.1611 13.2053 13.3838 13.4071C13.6197 13.6193 13.7258 13.8669 13.7062 14.1486C13.6865 14.4316 13.5398 14.7251 13.2672 15.0265L12.261 16.1402L9.91309 14.0202ZM12.8401 14.6937C12.9659 14.5548 13.034 14.4238 13.0458 14.3006C13.0563 14.1775 13.0117 14.0687 12.9056 13.9731C12.6986 13.787 12.4667 13.8368 12.2086 14.1237L11.7172 14.6675L12.3488 15.2374L12.8401 14.6937Z" fill="#7DBA7D"/>
<path d="M14.753 9.32324L16.81 11.7301L16.2597 12.2005L14.5905 10.2483L13.7664 10.9545L14.1778 11.472C14.4582 11.8231 14.6678 12.1232 14.8054 12.3734C14.943 12.6224 15.0085 12.8477 15.0045 13.0495C15.0006 13.2499 14.905 13.4294 14.7215 13.5867C14.6455 13.6509 14.5433 13.7177 14.4136 13.7845L14.0455 13.284C14.0835 13.267 14.1215 13.2434 14.1568 13.2133C14.2892 13.1006 14.3154 12.942 14.2341 12.7403C14.1529 12.5385 13.976 12.2634 13.7035 11.9175L12.903 10.9112L14.753 9.32324Z" fill="#7DBA7D"/>
<path d="M19.0898 9.3757L17.8516 10.1684L17.9814 10.8903L17.3498 11.2965L16.8284 7.86896L17.4376 7.47852L20.3384 9.37963L19.6912 9.79366L19.0898 9.3757ZM18.5958 9.03243L17.5188 8.28299L17.7508 9.57485L18.5958 9.03243Z" fill="#7DBA7D"/>
<path d="M21.4154 8.6944C21.1193 8.67737 20.852 8.59089 20.6097 8.42711C20.3686 8.26596 20.1812 8.04322 20.0489 7.75891C19.9166 7.4759 19.8628 7.18897 19.8917 6.89941C19.9205 6.61116 20.024 6.34781 20.1996 6.10935C20.3764 5.87089 20.611 5.68222 20.9071 5.54334C21.156 5.42673 21.3997 5.36515 21.6408 5.35729C21.8819 5.34943 22.1099 5.3966 22.3234 5.49617L22.0823 6.08839C21.7836 5.95606 21.4914 5.95737 21.2032 6.09101C21.025 6.17355 20.8861 6.28754 20.7826 6.43035C20.6804 6.57317 20.6228 6.73301 20.611 6.90858C20.5992 7.08546 20.6332 7.26103 20.7184 7.43791C20.801 7.61609 20.9149 7.75629 21.0578 7.85848C21.2006 7.96068 21.3604 8.01833 21.536 8.03012C21.7129 8.04191 21.8884 8.00785 22.0653 7.92268C22.3522 7.78904 22.5383 7.56238 22.6261 7.24399L23.2366 7.4366C23.1777 7.66719 23.0689 7.87421 22.9078 8.05633C22.7466 8.23845 22.5422 8.38781 22.2946 8.50442C22.005 8.65116 21.7102 8.71143 21.4154 8.6944Z" fill="#7DBA7D"/>
<path d="M25.6212 4.46771L24.6595 4.7874L25.4692 7.22571L24.7827 7.45368L23.973 5.01538L23.0152 5.33376L22.8265 4.76644L25.4325 3.90039L25.6212 4.46771Z" fill="#7DBA7D"/>
<path d="M29.3711 3.05127L29.9803 6.15909L29.261 6.3006L29.0108 5.02707L27.5997 5.30352L27.8499 6.57705L27.1306 6.71855L26.5214 3.61073L27.2407 3.46923L27.4804 4.69559L28.8915 4.41913L28.6518 3.19277L29.3711 3.05127Z" fill="#7DBA7D"/>
<path d="M33.1274 5.23535L31.6587 5.31527L31.4163 6.00707L30.6669 6.04768L31.9037 2.80884L32.6256 2.76953L34.2136 5.85246L33.4458 5.89439L33.1274 5.23535ZM32.8667 4.69292L32.2994 3.5098L31.8657 4.74795L32.8667 4.69292Z" fill="#7DBA7D"/>
<path d="M37.4773 2.91124L37.2559 6.07016L36.534 6.01906L36.593 5.17921L35.9247 5.13205L35.3063 5.93259L34.5346 5.87887L35.2605 4.9722C35.0521 4.87 34.8988 4.72588 34.7966 4.54245C34.6945 4.35902 34.6525 4.14284 34.6696 3.89652C34.6866 3.65282 34.7573 3.44711 34.8805 3.2781C35.0037 3.10908 35.1714 2.98592 35.3823 2.906C35.5933 2.82607 35.8383 2.79463 36.1134 2.81428L37.4773 2.91124ZM35.6051 3.52311C35.4884 3.6122 35.4242 3.75108 35.4111 3.94106C35.398 4.12449 35.4413 4.26993 35.5395 4.37736C35.6378 4.4848 35.7898 4.54507 35.9929 4.55817L36.6336 4.60403L36.7135 3.4576L36.0911 3.41436C35.8841 3.39733 35.7204 3.43401 35.6051 3.52311Z" fill="#7DBA7D"/>
<path d="M41.3831 5.57073L40.8931 5.44233L40.5721 6.67786L39.8685 6.49443L40.6664 3.43115L41.37 3.61458L41.0477 4.85404L41.556 4.98637L42.6841 3.95655L43.4322 4.15046L42.0447 5.36896L42.6658 7.2216L41.86 7.01196L41.3831 5.57073Z" fill="#7DBA7D"/>
<path d="M47.1127 5.58106L45.9165 8.51331L45.2456 8.24079L46.2152 5.86144L45.2089 5.45134L44.939 6.05404C44.7556 6.46414 44.5853 6.78776 44.4268 7.02491C44.2682 7.26206 44.0992 7.42321 43.9184 7.51231C43.7376 7.60009 43.5358 7.59878 43.3118 7.50576C43.22 7.46776 43.1139 7.40749 42.9947 7.32364L43.2711 6.7668C43.3026 6.793 43.3406 6.81528 43.3851 6.83362C43.5463 6.90044 43.6983 6.85065 43.8424 6.68425C43.9839 6.52048 44.1464 6.23616 44.3298 5.83524L44.8565 4.6626L47.1127 5.58106Z" fill="#7DBA7D"/>
<path d="M48.4516 6.23535L49.0805 6.60221L48.0429 8.3841L50.3855 7.36082L50.979 7.70672L49.3871 10.4438L48.7609 10.0808L49.7972 8.30156L47.4559 9.3209L46.8571 8.97238L48.4516 6.23535Z" fill="#7DBA7D"/>
<path d="M54.4917 10.3424L52.5317 12.8304L51.9552 12.3771L52.7583 11.3578L51.6289 10.4681L50.8258 11.4875L50.2493 11.0341L52.2093 8.54736L52.7858 9.0007L52.0141 9.98073L53.1435 10.8717L53.9152 9.89164L54.4917 10.3424Z" fill="#7DBA7D"/>
<path d="M55.5936 11.3423L56.0968 11.869L54.607 13.2958L57.1423 12.9604L57.6179 13.457L55.3303 15.6463L54.8298 15.1236L56.3169 13.7007L53.7855 14.0322L53.3073 13.5317L55.5936 11.3423Z" fill="#7DBA7D"/>
<path d="M60.0313 16.6169L57.4764 18.4879L57.048 17.9048L57.9677 17.2314C57.7254 17.0689 57.5354 16.892 57.3965 16.7021C57.1449 16.3588 57.0349 16.0352 57.0663 15.7338C57.0964 15.4312 57.2668 15.1665 57.576 14.9411L58.3752 14.3555L58.8037 14.9385L58.0699 15.4757C57.8957 15.6041 57.7974 15.7469 57.7778 15.9068C57.7581 16.0653 57.8118 16.2343 57.9415 16.4125C58.083 16.6064 58.2547 16.7623 58.4551 16.8763L59.6055 16.0352L60.0313 16.6169Z" fill="#7DBA7D"/>
<path d="M59.7431 21.2331L59.2295 21.5201L58.0359 19.3792L60.8017 17.8384L61.9678 19.9282L61.4542 20.2151L60.6432 18.7621L60.0431 19.0962L60.7598 20.3802L60.2619 20.658L59.5453 19.3739L58.9046 19.7316L59.7431 21.2331Z" fill="#7DBA7D"/>
<path d="M59.9711 22.8038C60.0025 22.5103 60.1047 22.2456 60.2803 22.0137C60.4545 21.7818 60.6878 21.6062 60.9773 21.4883C61.2682 21.3704 61.5564 21.3324 61.8434 21.3783C62.1303 21.4215 62.3871 21.5394 62.6151 21.7281C62.8431 21.9168 63.0186 22.1618 63.1418 22.4644C63.2453 22.7199 63.2938 22.9662 63.2885 23.2073C63.282 23.4484 63.2243 23.6738 63.113 23.8808L62.5338 23.6096C62.6819 23.3187 62.6963 23.0265 62.5771 22.7317C62.5037 22.5509 62.3976 22.4042 62.26 22.2941C62.1224 22.184 61.9665 22.1172 61.791 22.0963C61.6167 22.0753 61.4385 22.1002 61.2551 22.1749C61.073 22.2482 60.9275 22.3544 60.8175 22.4919C60.7074 22.6295 60.6406 22.7854 60.6196 22.961C60.5987 23.1353 60.6236 23.3134 60.6982 23.4969C60.8175 23.7904 61.0323 23.9882 61.3468 24.093L61.1214 24.6931C60.8935 24.6224 60.693 24.5031 60.5201 24.3328C60.3471 24.1625 60.2082 23.9502 60.106 23.696C59.9842 23.3947 59.9383 23.0999 59.9711 22.8038Z" fill="#7DBA7D"/>
<path d="M62.4146 26.4608L62.2849 25.9707L61.052 26.297L60.8659 25.5934L63.9266 24.7837L64.1126 25.4873L62.8745 25.8148L63.0081 26.3219L64.4585 26.8001L64.6563 27.5482L62.9138 26.9377L61.6036 28.3881L61.3913 27.5823L62.4146 26.4608Z" fill="#7DBA7D"/>
<path d="M62.6491 30.9574L62.4578 29.4991L61.7477 29.3091L61.6494 28.5649L64.9721 29.5489L65.0678 30.2669L62.1145 32.0855L62.0137 31.3229L62.6491 30.9574ZM63.1719 30.656L64.3092 29.9996L63.0409 29.6603L63.1719 30.656Z" fill="#7DBA7D"/>
<path d="M65.3115 35.087L62.1447 35.1381L62.1329 34.4149L62.974 34.4018L62.9636 33.7323L62.1132 33.1846L62.1014 32.4116L63.0671 33.0575C63.1509 32.8413 63.2793 32.6762 63.4549 32.5583C63.6305 32.4404 63.8414 32.3801 64.0877 32.3762C64.3314 32.3723 64.5437 32.4247 64.7206 32.5334C64.8987 32.6422 65.0376 32.7994 65.1346 33.0025C65.2328 33.2055 65.2839 33.4453 65.2879 33.7231L65.3115 35.087ZM64.5384 33.2737C64.4402 33.1649 64.296 33.1125 64.1061 33.1151C63.9226 33.1178 63.7824 33.1728 63.6842 33.2815C63.5859 33.389 63.5401 33.5449 63.5427 33.7506L63.5532 34.3926L64.7022 34.3743L64.6917 33.7506C64.6878 33.5397 64.6367 33.3811 64.5384 33.2737Z" fill="#7DBA7D"/>
<path d="M65.0232 38.3441L64.5712 40.8597L63.9973 40.7575L64.3196 38.9586L63.679 38.8446L63.523 39.7081C63.4549 40.0854 63.3252 40.3579 63.1326 40.5269C62.94 40.696 62.695 40.7536 62.3989 40.6999C62.087 40.6436 61.8656 40.4903 61.732 40.24C61.5996 39.9898 61.5695 39.6635 61.6416 39.2626L61.9075 37.7847L65.0232 38.3441ZM62.1827 39.3189C62.1499 39.5024 62.1604 39.6504 62.2154 39.7605C62.2718 39.8718 62.3674 39.94 62.5076 39.9636C62.7801 40.0133 62.9505 39.8469 63.0199 39.467L63.1496 38.7464L62.3124 38.5957L62.1827 39.3189Z" fill="#7DBA7D"/>
<path d="M61.1739 41.9552C61.3914 41.7482 61.6403 41.612 61.9233 41.5465C62.2063 41.4809 62.4946 41.4967 62.7907 41.5936C63.0868 41.6906 63.3292 41.8465 63.5191 42.0653C63.7091 42.2841 63.831 42.5422 63.8834 42.8357C63.9358 43.1318 63.9122 43.4345 63.81 43.7463C63.7091 44.0581 63.5493 44.3176 63.3331 44.5233C63.1169 44.7277 62.8667 44.8639 62.5837 44.932C62.3006 44.9989 62.0111 44.9831 61.715 44.8875C61.4189 44.7905 61.1765 44.632 60.9865 44.4132C60.7965 44.1931 60.6747 43.935 60.621 43.6428C60.5672 43.3493 60.5908 43.0453 60.693 42.7335C60.7978 42.4217 60.9564 42.1609 61.1739 41.9552ZM61.2551 43.4489C61.2892 43.6192 61.3678 43.7686 61.487 43.8983C61.6062 44.028 61.7595 44.1223 61.9456 44.1839C62.1316 44.2442 62.3124 44.2573 62.4841 44.2232C62.657 44.1892 62.8077 44.1132 62.9361 43.9966C63.0645 43.8799 63.1575 43.7332 63.2152 43.555C63.2728 43.3768 63.2846 43.2039 63.2492 43.0335C63.2139 42.8632 63.1366 42.7139 63.0173 42.5841C62.8981 42.4544 62.7448 42.3601 62.5588 42.2985C62.3714 42.2383 62.1919 42.2252 62.0203 42.2592C61.8486 42.2933 61.698 42.3693 61.5682 42.4859C61.4398 42.6025 61.3468 42.7492 61.2892 42.9274C61.2328 43.1056 61.221 43.2786 61.2551 43.4489Z" fill="#7DBA7D"/>
<path d="M61.5276 48.9898L58.6805 47.6022L58.9975 46.9511L61.3075 48.0752L61.7831 47.0991L61.2 46.7899C60.803 46.579 60.4912 46.3877 60.2658 46.2134C60.0392 46.0405 59.8885 45.8597 59.8138 45.6736C59.7378 45.4876 59.7535 45.2858 59.8597 45.0683C59.9029 44.9792 59.971 44.8783 60.0628 44.7656L60.5999 45.0775C60.5711 45.1076 60.5475 45.1443 60.5266 45.1875C60.4493 45.3447 60.4886 45.4993 60.6445 45.6513C60.8004 45.8033 61.0716 45.9841 61.4581 46.1938L62.5941 46.7965L61.5276 48.9898Z" fill="#7DBA7D"/>
<path d="M58.3713 51.5604C58.1132 51.6377 57.8433 51.5827 57.5629 51.3967C57.2642 51.1988 57.0991 50.9525 57.0663 50.659C57.0349 50.3668 57.1331 50.0458 57.3624 49.7012L58.1512 48.5103L60.7913 50.2581L60.389 50.866L59.5217 50.2921L59.0775 50.963C58.8626 51.2853 58.6268 51.4844 58.3713 51.5604ZM57.707 50.4166C57.7267 50.5568 57.8092 50.6773 57.9573 50.7756C58.2311 50.9564 58.48 50.8791 58.7041 50.5424L59.0683 49.9921L58.201 49.4182L57.8367 49.9685C57.7319 50.1271 57.6874 50.2764 57.707 50.4166Z" fill="#7DBA7D"/>
<path d="M56.6365 55.6848L54.2493 53.6042L54.7302 53.0526L55.7089 53.9056L56.6549 52.822L55.6762 51.9691L56.157 51.4175L58.5442 53.4981L58.0634 54.0497L57.1226 53.2295L56.1767 54.313L57.1174 55.1332L56.6365 55.6848Z" fill="#7DBA7D"/>
<path d="M55.5793 56.7398L55.029 57.2167L53.6794 55.6575L53.8878 58.2059L53.3676 58.6566L51.2949 56.2629L51.8425 55.7899L53.1894 57.3464L52.9837 54.8007L53.5065 54.3486L55.5793 56.7398Z" fill="#7DBA7D"/>
<path d="M47.9944 59.1858L47.6721 58.684L50.4642 56.8877L52.1766 59.55L51.5648 59.9431L50.1746 57.7826L48.9876 58.5451L50.3777 60.7057L49.7658 61.0987L48.3757 58.9382L47.9944 59.1858Z" fill="#7DBA7D"/>
<path d="M45.3189 60.5368L46.6553 59.9249L46.6278 59.1912L47.3104 58.8794L47.3471 62.3462L46.6894 62.6476L44.0834 60.3586L44.783 60.0389L45.3189 60.5368ZM45.7604 60.9469L46.7221 61.8392L46.6737 60.5276L45.7604 60.9469Z" fill="#7DBA7D"/>
<path d="M31.3065 50.3838C31.3039 50.3851 31.2999 50.3864 31.2972 50.3878L31.2839 50.3958L31.3065 50.3838Z" fill="#7DBA7D"/>
<path d="M49.0648 28.959C49.0675 28.9603 49.0715 28.9616 49.0741 28.9656L49.0874 28.9736L49.0648 28.959Z" fill="#7DBA7D"/>
<path d="M14.6062 30.6065C11.298 34.6918 10.6599 40.5523 13.4454 45.3765C17.0537 51.6276 25.0447 53.7698 31.297 50.1667L32.7003 49.3399L25.1207 39.4491L33.2165 25.4272L20.7642 27.1633C18.3521 27.4974 16.1379 28.7146 14.6062 30.6065ZM22.0705 28.6844L31.0114 27.4371L24.0345 39.5199L31.3599 49.0792L30.8267 49.3936C25.0277 52.7294 19.2562 50.4929 15.906 44.6913C13.4035 40.3558 13.3419 35.6901 16.4916 31.8014C17.8687 30.0995 19.8497 28.9923 22.0705 28.6844Z" fill="#7DBA7D"/>
<path d="M40.479 52.9773C45.6701 53.7988 51.0655 51.4207 53.8497 46.5978C57.458 40.3468 55.3198 32.3558 49.0727 28.7423L47.655 27.9404L42.8793 39.4493H26.689L34.418 49.3663C35.9142 51.2871 38.0748 52.596 40.479 52.9773ZM35.0809 47.4744L29.5309 40.3547H43.4833L48.0992 29.2323L48.639 29.5363C54.4262 32.8904 55.3761 39.0078 52.0272 44.8081C49.5247 49.1436 45.5142 51.5295 40.572 50.7473C38.4102 50.4053 36.4606 49.2432 35.0809 47.4744Z" fill="#7DBA7D"/>
<path d="M46.9161 19.3862C45.0333 14.4781 40.2759 10.9956 34.7062 10.9956C27.4882 10.9956 21.6368 16.8444 21.6316 24.061L21.6447 25.6896L34 24.0715L42.0958 38.0934L46.8191 26.4417C47.7349 24.1829 47.7887 21.6581 46.9161 19.3862ZM44.8485 26.8099L41.4577 35.1769L34.4808 23.0941L22.5409 24.6572L22.5343 24.0375C22.5461 17.3475 27.3677 13.468 34.0668 13.468C39.0705 13.468 43.144 15.7477 44.9363 20.4187C45.7238 22.4626 45.691 24.7319 44.8485 26.8099Z" fill="#7DBA7D"/>
<path d="M34 26.7832L27.4712 38.0916H40.5288L34 26.7832Z" fill="#7DBA7D"/>
<path d="M41.9949 61.6019V62.426H39.5605L38.3106 64.2079C38.1874 64.3363 38.0079 64.4228 37.7708 64.4228C37.5336 64.3809 37.3541 64.2944 37.2965 64.1175L36.3492 62.1247L35.4595 63.5987C35.3927 63.731 35.1556 63.8581 34.9197 63.8162C34.6263 63.8162 34.4468 63.6851 34.3799 63.4703L33.6135 59.913L32.6662 65.3308C32.5994 65.5483 32.4199 65.6806 32.1264 65.6806C31.8329 65.6806 31.5957 65.5496 31.5289 65.3766L30.4585 61.1695L29.7483 62.2112C29.692 62.3422 29.4548 62.426 29.2753 62.426H26.8986V61.6019H28.9163L30.1663 59.6956C30.2894 59.5226 30.5266 59.4361 30.7624 59.4361C30.9996 59.4781 31.1791 59.6091 31.2354 59.782L32.0124 62.7339L32.9597 57.2219C33.016 57.007 33.2623 56.876 33.4995 56.876C33.793 56.876 34.0301 57.007 34.0864 57.2219L35.1569 61.9937L35.8775 60.783C35.9338 60.6061 36.171 60.5197 36.4081 60.5197C36.6453 60.5197 36.8248 60.6507 36.9388 60.8236L37.9516 62.9488L38.7285 61.8207C38.8425 61.6897 39.022 61.6032 39.2592 61.6032H41.9949V61.6019Z" fill="#7DBA7D"/>
</svg>
