<?xml version="1.0" standalone="no"?>
<!DOCTYPE svg PUBLIC "-//W3C//DTD SVG 20010904//EN"
 "http://www.w3.org/TR/2001/REC-SVG-20010904/DTD/svg10.dtd">
<svg version="1.0" xmlns="http://www.w3.org/2000/svg"
 width="16.000000pt" height="16.000000pt" viewBox="0 0 16.000000 16.000000"
 preserveAspectRatio="xMidYMid meet">

<g transform="translate(0.000000,16.000000) scale(0.100000,-0.100000)"
fill="#000000" stroke="none">
<path d="M40 140 c-21 -21 -23 -29 -14 -54 6 -16 24 -12 24 5 0 6 -4 7 -10 4
-6 -3 -10 1 -10 10 0 10 5 13 12 9 7 -5 9 -2 6 8 -5 11 2 14 28 14 30 -1 34
-4 34 -28 0 -31 15 -45 24 -22 3 9 6 20 6 25 0 17 -40 49 -60 49 -11 0 -29 -9
-40 -20z m53 3 c-7 -2 -19 -2 -25 0 -7 3 -2 5 12 5 14 0 19 -2 13 -5z"/>
<path d="M60 103 c0 -9 -10 -27 -22 -40 l-21 -23 63 0 63 0 -21 23 c-12 13
-22 31 -22 40 0 10 -8 17 -20 17 -12 0 -20 -7 -20 -17z"/>
<path d="M60 10 c0 -5 9 -10 20 -10 11 0 20 5 20 10 0 6 -9 10 -20 10 -11 0
-20 -4 -20 -10z"/>
</g>
</svg>
