<?xml version="1.0" encoding="UTF-8" standalone="no"?>
<svg
   version="1.1"
   width="1475.4946"
   height="1475.1958"
   id="svg52"
   viewBox="0 0 1475.4946 1475.1958"
   sodipodi:docname="a321216f5791c003c4a38bea37aa7973.cdr"
   xmlns:inkscape="http://www.inkscape.org/namespaces/inkscape"
   xmlns:sodipodi="http://sodipodi.sourceforge.net/DTD/sodipodi-0.dtd"
   xmlns="http://www.w3.org/2000/svg"
   xmlns:svg="http://www.w3.org/2000/svg">
  <defs
     id="defs56" />
  <sodipodi:namedview
     id="namedview54"
     pagecolor="#ffffff"
     bordercolor="#666666"
     borderopacity="1.0"
     inkscape:pageshadow="2"
     inkscape:pageopacity="0.0"
     inkscape:pagecheckerboard="0" />
  <path
     d="m 702.05539,0.42071763 c -2.7,0.2001 -11.7,0.79989997 -20.0001,1.39999997 -155.0999,11.3001004 -304.6,72.9000004 -423,174.3999024 -35.7999,30.7001 -71.7001,67.7999 -99.6001,103.1 -75.199997,95.1001 -125.899897,206.7001 -147.300097,324.5001 -27.7999,153.1 -7.6999995,308.1999 58.1001,448.49988 21.3998,45.6001 53.300097,97.7 82.599797,135 3.8999,4.8999 7.4999,9.3999 7.8999,10 4.3999,5.6999 22.1,26.7001 27.7999,33.0001 19.2,21.3001 55.5999,56.4001 75.5,73.0001 113.9,94.7001 250.4999,152.7001 395.5,167.9 49.8999,5.3 106.5999,5.3 155.9999,0 119.9999,-12.7 233.20001,-53.7998 332.89991,-120.8001 41.9,-28.1001 75.8001,-56.0999 112.1,-92.4999 25.7001,-25.8998 49.4,-53.1 67.7999,-78.0998 1.8,-2.4999 5.8,-7.8999 8.9,-11.9999 33.9001,-46.1002 68.5,-110.4999 90.5,-168.50018 42.9999,-113.4 57.1,-234.2001 41.6999,-356.7999 -18.7999,-150.4001 -87.0001,-295.7001 -190.5001,-406.1999 -47.4001,-50.6002 -92.0001,-87.6 -149.6999,-124.3001 -5.2999,-3.3999 -10.0001,-6.1999 -10.3,-6.1999 -0.2999,0 -2.4001,-1.3 -4.7001,-2.8001 -13,-8.799902 -51.9999,-29.000102 -79.2,-40.900002 C 953.25439,26.221118 869.75419,6.3210176 778.55429,0.82101763 c -14.6999,-0.9 -63.4,-1.1002 -76.5,-0.4 z m -2.4998,80.10000037 c 0,0.5 1.8,20.000102 4.2001,43.499902 2.3,23.5001 3.8999,42.9999 3.7,43.3001 -0.7999,0.6998 -20.9001,2.8 -21.4999,2.1999 -0.2999,-0.2999 -1.1999,-7.4001 -2.0999,-15.9001 -0.8,-8.3999 -1.7,-15.5001 -1.9001,-15.6999 -0.1,-0.2001 -1.9,0.1 -3.8999,0.5 -3.4999,0.9 -4.1,1.6999 -12.7,17.3999 -5.0001,9.1001 -9.2002,16.6 -9.3,16.8001 -0.2001,0.2001 -5.4,0.7999 -11.7,1.4 -7.3,0.6999 -15.4,2.2 -23.1,4.5 -6.4001,1.9001 -12.1,3.2001 -12.6,2.9002 -0.4,-0.2999 -2.8001,-3.7001 -5.1999,-7.6 -2.4001,-3.8001 -4.9,-6.9999 -5.4,-6.9999 -0.6001,0 -6.4001,1.5999 -12.8999,3.5 -6.5999,1.9 -12.1,3.4999 -12.2001,3.4999 -0.2001,0 -0.5,4.2001 -0.6001,9.2001 l -0.2999,9.2999 -7.4999,2.3001 c -10.1001,2.9999 -23.1001,7.4001 -30.6,10.2999 l -6.1999,2.3001 -17.5,-11.8001 c -13.5,-9.1001 -17.8999,-11.7 -19.5998,-11.0999 -1.1002,0.2999 -2.0999,1.0001 -2.0999,1.4 0,0.4 2.9001,7.8001 6.5999,16.4999 3.6,8.7001 6.4,15.9999 6.1999,16.1 -1.4,1.2999 -20.3,8.3999 -20.8001,7.8001 -0.3999,-0.5001 -3.4999,-7.6 -6.8,-15.8001 -3.3999,-8.3001 -9.1001,-22.2001 -12.7001,-30.9999 -12.6,-30.6 -13.7999,-33.5999 -12.8999,-34.4002 1.3,-1.1001 19.4001,-8.3999 19.9001,-7.9999 0.2001,0.2001 3.1,7.0999 6.5001,15.4001 3.3999,8.2 6.5001,15.4 6.9001,15.8 0.4,0.4 1.5001,0.5 2.4001,0.1001 3.3999,-1.3 4.7999,-5.4 5.8,-17.2001 1.6999,-19.0001 4.3999,-24.4001 15.1999,-29.7 9,-4.2999 9.5,-4.1 13.2999,4.7999 1.9001,4.3999 3.3999,8.2001 3.3999,8.6 0,0.5001 -1.9001,1.5999 -4.1001,2.7 -5,2.2 -6.9001,6.0001 -6.9001,13.6001 0,2.9999 -0.6001,7.7 -1.4,10.6999 l -1.3,5.1999 20.9002,14 c 11.5999,7.7001 21.0999,13.9 21.3001,13.7002 0.2001,-0.2002 1.1999,-20.0999 2.4001,-44.2001 1.1001,-24.1999 2.4,-44.3001 2.8,-44.6 1.5999,-1.4001 22.6001,-7.100002 23.4,-6.300002 0.4,0.3999 7.2,10.199902 15.2,21.800102 28.5998,41.6001 35.3001,51.0001 36.1,50.8 1.1001,-0.1001 20.6,-33.3 20.6,-34.8999 0,-0.6001 -1.5001,-1.6999 -3.3001,-2.5999 -9.4,-4.5 -13.7999,-11.4999 -14.5001,-23.0001 -0.5,-9.2999 1.6999,-14.799902 8.1,-20.300002 5.8,-5 14,-7.2 35.2001,-9.4 21.3001,-2.1999 23.5,-2.3 23.5,-1.4 z m 119.0999,2.7 c 6.5001,2.0001 11.7,4.7999 16.4001,8.8999 17.3999,15.000102 16.3001,53.300202 -2.0001,70.600002 -9.2002,8.7001 -19.0001,11.4999 -34.1,9.9 -11.0999,-1.1999 -19.9,-5.5001 -26.8999,-12.8999 -6.9001,-7.4999 -9.6001,-14.4 -10.1999,-26.3999 -1.4,-26.1 11.7,-47.200002 32.1001,-51.500102 5.4,-1.1999 18.9,-0.4 24.7,1.4 z m 117.5,25.800102 c 0.5,0.6001 -2.0999,14 -3.2,15.9001 -0.2002,0.4 -9,-1.5001 -19.5999,-4.2001 -10.5999,-2.7 -19.8,-4.9 -20.3,-4.9 -0.6001,0 -1.5999,2.6 -2.3001,5.6999 -0.6998,3.2001 -1.5001,6.5002 -1.8,7.4002 -0.3999,1.2999 0.6999,2.0001 4.7999,2.9001 2.9002,0.6999 9.5001,2.5999 14.6002,4.2001 15.0998,4.7999 21.6,12.3001 21.4999,24.8 -0.1001,11.9999 -5.6001,21.3999 -15.3,25.8999 -8.6,4 -16.2,3.6 -40.5,-2.4001 -11.0001,-2.7 -20.2,-5 -20.4001,-5.1001 -0.2999,-0.2999 17.2001,-72.6001 20.0001,-82.800002 l 0.9,-3.3001 30.3999,7.600002 c 16.8001,4.2001 30.8001,7.8998 31.2001,8.3001 z m 73.90011,29.3 c 25.4001,11.6 28.5001,13.2001 28.1001,15.0001 -0.5,1.9001 -34.4001,77.4 -35.2001,78.4001 -0.5,0.5 -19.40001,-7.9999 -20.00011,-9.1001 -0.2999,-0.3999 6.0001,-15.0998 13.9,-32.5 l 14.40001,-31.7999 -4.1001,-1.9001 c -2.3,-1.1001 -6.3,-2.9999 -8.89991,-4.2999 -2.7,-1.2999 -5.1999,-2.3 -5.6999,-2.3 -0.4,0 -3.6,5.2999 -6.9999,11.7 -16.4001,31.1 -29.0001,43.3001 -43.2,42.0999 -5.2999,-0.5001 -16.8001,-5.1999 -16.8001,-6.9001 0,-0.5001 1.8,-4.7002 3.8999,-9.2999 l 3.8999,-8.5 4,1.5999 c 10.1001,3.8999 16.6,-3.5 33.8,-38.4999 4.6001,-9.6001 8.9,-17.2001 9.2999,-16.9999 0.5001,0.2001 13.8,6.0998 29.60001,13.2998 z m -579.80021,30.7001 c 2.2,3.4999 4.7999,7.7 5.6002,9.5 1.5001,2.8001 1.5001,3.2001 0.1,3.7001 -0.9,0.2999 -2.0001,0.4 -2.4998,0.1001 -0.5001,-0.3 -4.4,-0.6001 -8.7999,-0.6001 -17.3999,0 -26.9,8.8999 -25.8999,24.4 0.6999,10.5001 8.5,23.1001 17.5,28.4001 6.6999,3.8999 15.3,3.8001 21.8999,-0.3 6.0999,-3.7 10.6999,-9.6998 13.5,-17.3999 1.1999,-3.3998 2.4999,-6.3 2.9001,-6.5001 0.5,-0.2999 3.3001,3.6 6.4001,8.6 5.5,8.9 5.5,9.1001 3.9999,12 -0.7999,1.5998 -4.3999,6.0998 -7.9999,9.9 -15.0001,15.9 -35.5,21.2 -51.9001,13.5 -10.9001,-5.1001 -23.1001,-20.2 -27.2999,-33.5002 -1.0001,-3.4999 -1.6999,-8.7001 -1.5999,-14 0,-7.4001 0.4,-9.5 3.1,-15.0999 4.9,-10.5999 10.6999,-16.0999 24.0999,-22.8999 5.6999,-2.9002 15.6999,-5.7 20.7,-5.9001 1.5001,-0.1 3.3001,1.7 6.1999,6.0999 z m 662.50011,14 c 9.2001,5.6999 9.9,6.4001 9.2999,8.7001 -0.4,1.5001 -4.9,20.9999 -10.1001,43.6 -5.1001,22.5 -9.6001,42.0999 -10.0001,43.4001 -0.2999,1.4 -0.7999,2.0001 -1.1999,1.5001 -0.4,-0.5 -4.7999,-3.6 -9.7999,-6.7 l -9.2001,-5.6999 2.3,-8.7998 2.2,-8.7999 -3.6,-2.4001 c -2.0002,-1.3 -7.1,-4.6001 -11.4999,-7.2 l -7.8001,-4.9 -3.2,2.6 c -1.7,1.2999 -4.9,3.9999 -7.2,6.0001 l -4,3.4999 -9.2001,-5.8 c -5.1001,-3.0999 -9.2002,-5.9 -9.2002,-6.1999 0,-0.2999 8.3999,-7.4999 18.6001,-15.9999 10.3,-8.5 26.1,-21.7001 35.2001,-29.3 9.1001,-7.4999 16.8999,-13.7001 17.5,-13.7001 0.5,0 5.4,2.8 10.9,6.1999 z m -294.70001,30.6998 c 121.9,14.8 229.70021,67.3999 314.10001,153.2001 22.7002,23.0001 33.2,35.1 48.6,55.9001 53.7001,72.2999 88.4002,158.1001 99.6999,246.4999 6.1999,48.5 5.2999,108.4 -2.4001,153.8 -15.3,90.2999 -51.7,172.1999 -107.3999,242.19998 -18.2001,22.7999 -47.9001,53.9 -67.9,71 -59.6999,51.0001 -127.69991,87.6999 -200.99991,108.3999 -137.5999,38.8001 -285.5999,20.3001 -408.4999,-51.0998 -131.2999,-76.2999 -223.8001,-205.99998 -252.6001,-353.80008 -7.4001,-38.3 -9.6001,-61.8999 -9.5,-104 0,-32.6002 1.1001,-48.3001 5,-74.9999 4.2999,-29.7 12.3999,-63.2002 21.8999,-91.5001 9.6999,-28.8 27.7999,-69.2 41.5001,-92.9999 56.1999,-97.1 140.1001,-173.4999 240.8,-219.1 57.2,-25.8999 113.4,-40 182.2,-45.7999 2.4998,-0.2002 21.2,-0.2002 41.5,-0.1001 29.8001,0.2999 40.2999,0.6999 54,2.4001 z m -451.3002,7.3001 c 5,1.5001 11.0999,8.3001 12.8001,14.2999 1.1001,4 0.9,9.1001 -0.6001,13 -0.5,1.1001 0.1001,1.1001 3.3001,0 10.4,-3.8002 20.7,1 26.3001,12.2 3.3001,6.4001 3.3001,14.8 0.1001,22 -2.3,5.2999 -11.7,15.1999 -20.5999,21.8001 -2.2,1.5999 -7.7001,6.0001 -12.2001,9.6999 -4.5,3.8001 -8.3999,6.8 -8.6,6.8 -0.4,0 -40.9,-50.1999 -45.2001,-55.9001 -1.1002,-1.5001 -3.8999,-5 -6.2,-7.8001 l -4.2998,-5 14.2999,-11.4999 c 25.4001,-20.4001 30.3999,-22.7999 40.9,-19.5998 z m 812.00011,12.7 c 12.1,4.1001 24.1999,15.0001 30.2,27 l 3.7001,7.3001 -5.6001,6.8 c -8.7999,10.7 -9.8,11.0999 -11.0001,3.8002 -2.7,-15.6 -12.2001,-25.8001 -24.0999,-25.8001 -14.4,0 -31,17.3999 -30.8001,32.5 0.1,13.2999 9.9,21.8999 26.4999,23.3 4.4,0.3999 7.8999,1.1001 7.8999,1.6999 -0.1001,0.5 -2.9999,4.3999 -6.5999,8.6 l -6.5001,7.7001 -4.6001,-1.4001 c -17.7001,-5.2999 -32.8,-18.7999 -37.3,-33.3 -4.2998,-13.7001 -0.9,-27 10.4001,-41.2999 12.4999,-15.7 31.7001,-22.3999 47.8,-16.8999 z m 48.8001,42.4001 c 0.8,0.6999 4.7002,4.7999 8.5,9.1001 3.8999,4.3999 14.2999,16.0999 23.2999,25.8998 8.9,9.9 16.1,18.5001 15.9001,19.0001 -0.2001,0.6001 -2.9001,3.3999 -6.0998,6.0999 l -5.8,5.1001 -8.7999,-9.5001 -8.7001,-9.3999 -9.3999,8.3001 c -5.1999,4.6001 -13.9,12.6 -19.4001,17.6 -5.5,5.1001 -13.1,11.9999 -16.9999,15.4001 l -6.9999,6.1999 -7.2,-7.8001 c -4,-4.2998 -7.0999,-8.3001 -6.9999,-8.8999 0.1001,-0.6001 6.0999,-6.4001 13.2001,-13 22.2999,-20.4001 32.6002,-29.8 35.7001,-32.4 l 2.9002,-2.4999 -8.6001,-9.5 -8.4999,-9.4 5.6999,-5.7999 c 3.2,-3.2001 6.0001,-5.8 6.3,-5.8 0.2999,0 1.1999,0.6001 2.0001,1.3 z m -925.90011,11.0999 c 9.9,2.0999 16.4001,6.0001 25.8999,15.5999 9.6998,9.6001 13.2998,15.9999 15,26.2001 2.0002,12.9999 -2.1999,24.0998 -13.3999,35.3999 -9.1001,9 -15.9999,12.4999 -26.1,13.2001 -13.6001,0.9 -24.9001,-4.2001 -37.5999,-16.8001 -7.4999,-7.4002 -12.0999,-15.5002 -14,-24.8001 -4.7001,-22.7001 17.1,-48.8999 41.6001,-50.1001 1.1002,0 5.0001,0.6001 8.6001,1.3 z m 992.10021,68.2002 c 3.2,4.2998 5.6001,8.4999 5.5,9.2999 -0.1,0.6998 -5.6001,5 -12.2,9.5 -6.8,4.6001 -11.9999,8.7999 -11.9001,9.6001 0.1,0.7999 3.0999,5.8 6.8,11.0001 3.7001,5.1999 7.2,10.1999 7.6,11.0001 0.6998,1.1002 1.2999,1.1999 2.4001,0.5001 0.9,-0.6001 6.9001,-4.7002 13.3999,-9.2002 l 11.8001,-8.1 6.4,9.4 c 3.5,5.1999 6.2,9.5 5.9001,9.8 -4.4,3.8999 -72.2999,49.6 -72.8,48.9999 -3.7,-4.2999 -12.0999,-17.7999 -11.4001,-18.3999 0.4,-0.4 7.4002,-5.3 15.5999,-10.9001 8.1,-5.6999 14.6999,-10.6999 14.6999,-11.3 0,-0.6001 -1.2999,-2.7 -2.9001,-4.7002 -1.5001,-2.0001 -5,-6.9001 -7.6,-10.9 -2.5999,-3.8999 -5.1998,-7.2 -5.6999,-7.2 -0.3999,0 -7.5999,4.7001 -15.8,10.5001 -8.3001,5.7999 -15.4001,10.5001 -15.8,10.5001 -0.9,-0.1001 -12.2001,-16.4999 -12.2001,-17.7999 0,-0.5 8.4,-6.7 18.6001,-13.7999 10.1999,-7.1 20.0002,-13.9 21.7001,-15.2 14,-10.1001 30.3999,-20.9999 31.2001,-20.8 0.5,0.1 3.6,3.8001 6.7,8.2 z m -1061.40021,3.7998 6.3,3.8001 -2.0999,3.3001 c -3.2001,5.1999 -2.6,9.1001 2.9001,17.9 2.7,4.2001 5.1999,8.7998 5.5001,10.1999 0.7999,2.8 -1.7,2.7 29.9999,1.2999 13.1,-0.5 24.0001,-0.7999 24.3,-0.6001 0.2001,0.2999 -2.2,4.7002 -5.5001,9.8 -3.2,5.1998 -6.0999,10.1001 -6.4001,11.0001 -0.5,1.3 -3.2,1.6999 -15.0001,2.2 -7.8,0.3999 -17.4999,0.6998 -21.3998,0.6998 -6.4001,0 -7.3001,0.2999 -8.7001,2.3001 -1.5001,2.3 -1.4001,2.4001 11.7,10.5001 7.2,4.3999 13.8999,8.3999 14.9,8.7998 0.9,0.2999 1.6999,1.1002 1.6999,1.5999 0,0.6001 -2.4998,5.1001 -5.6001,10.0001 -4.2999,6.6999 -6.0001,8.7999 -7.3,8.3001 -1.5999,-0.6001 -16.4999,-9.6999 -43.6,-26.5 -7.7,-4.7999 -17.7001,-10.9 -22.2001,-13.7001 l -8.2001,-5 5.3,-8.7001 c 2.9999,-4.7999 5.7999,-9.2001 6.3,-9.6999 0.6001,-0.6001 5.6001,1.9001 13.7999,7.0999 16.8001,10.5999 16.5999,10.5001 17.6,8.9 1.4,-2.2 1.0001,-7.7 -0.6001,-11.0001 -0.9,-1.5999 -3.6,-6.0999 -6.0999,-9.9 -9.3999,-14.5001 -9.3999,-21.7001 -0.1,-35.7001 1.9,-2.9002 2.4001,-3.1 4.2001,-1.9001 1.1001,0.6999 4.7999,2.9001 8.3001,5 z m -44.5,85 c 4.2001,2.0001 7.7,3.9999 7.7,4.6 0,0.5001 -2.3,2.0999 -5,3.5 -18.4,9.2999 -23.4,26.8999 -11.2,39.3998 9.2002,9.4 24.4001,14.3 34.3001,11.0002 12.6,-4.2001 18.2999,-17.2001 14.4,-32.9001 -1.0001,-3.8999 -1.5001,-7.4001 -1.1001,-7.7 0.2999,-0.4 4.8999,1.1001 10.1001,3.2 l 9.5,3.8002 v 8.1 c 0,14.2999 -5.1998,27.7999 -14.5,37.5001 -13.4,14.1001 -31.2999,15.8 -53,5.1998 -10,-4.8999 -17.3001,-11.8 -21.6,-20.1999 -8.3001,-16.3001 -3.2,-38.8001 12.3999,-54.6999 6.0001,-6.1999 6.1999,-6.1999 18,-0.7999 z m 1169.70011,20.6002 5.4,11.0001 -32.4,32.5001 c -17.7999,17.7999 -32.1999,32.6001 -32,32.9 0.2999,0.2001 4.2998,1.8 9,3.6 4.7001,1.6999 12.6,4.7001 17.4999,6.5001 5.0001,1.9001 9.8,3.7001 10.8,4.1001 1.3,0.5 1.7,0.1 1.7,-1.5001 0,-3.3999 4.6,-11.6 8.2,-14.6002 14.4,-12.2 33.7,-8.1 41.6999,8.7999 3.5,7.3001 13.6001,44.6001 12.3999,45.6999 -0.3999,0.2999 -15.5999,4.6001 -33.8,9.4 -18.1001,4.7999 -36.7999,9.7999 -41.5001,11.0999 -4.6,1.2999 -8.6,2.1999 -8.7998,2.0001 -0.6999,-0.6001 -6.2,-20.9001 -5.8,-21.2 0.2001,-0.2002 6.9999,-2.0999 15.0999,-4.2999 8.2,-2.3 15.0998,-4.2001 15.3,-4.3999 0.2001,-0.2002 -0.1001,-1.9001 -0.6001,-3.7001 -0.8,-3.3999 -1.0001,-3.4999 -19.1999,-9.9 l -18.5001,-6.5001 -2.8,-9.5001 c -1.5001,-5.1998 -2.9999,-11.4001 -3.2001,-13.6 -0.2001,-2.3001 -2.4001,-8.2001 -4.8999,-13.2999 l -4.6001,-9.1001 6.7,-6.4 6.6999,-6.4001 -5.9,-12.1 c -3.8001,-7.8998 -6.4001,-12.0999 -7.4001,-11.9999 -0.9,0 -5,0.6001 -9.2001,1.3 l -7.7001,1.1999 -4.7999,-9.7999 c -2.5999,-5.3 -4.6,-10.0001 -4.2999,-10.1999 0.3,-0.2999 14.1999,-2.3001 30.9,-4.6001 16.8,-2.2 36.7999,-4.9 44.4999,-5.9 7.7001,-1.0001 14.5001,-1.9001 15.0001,-2.0002 0.6001,-0.1 3.5,4.9 6.5001,10.9001 z m -1193.00001,72.4997 c 16.8001,4.2001 35.3001,8.7001 41.2999,10.1999 7.2,1.7 10.6999,3.1 10.6999,4 0,2.3 -4.2,18.6999 -5.1,19.6999 -0.4,0.5001 -15.2,-2.5999 -34.4002,-7.4001 -18.5,-4.5 -33.9001,-7.9999 -34.2,-7.7 -0.6998,0.7999 -7.3,27.1001 -6.8,27.6001 0.2001,0.2001 15.5999,4.1 34.0999,8.7001 18.5001,4.5 33.8001,8.3999 33.9001,8.6 0.2999,0.2999 -4.5,20.9001 -5,21.6 -0.2999,0.4 -84.399897,-20.4001 -85.099997,-20.9999 -0.2999,-0.4 2.9999,-15.1999 7.400097,-33.0001 4.3999,-17.7001 8.3001,-33.8 8.7001,-35.6 0.4,-2.0999 1.1999,-3.2001 2.3,-3.2001 0.9,0 15.4001,3.3999 32.1999,7.5 z m -14.0001,133.5002 c 3.2001,2.3001 6.0001,7.6 6.0001,11.6 0,4.6 -3.7,11.0001 -7.4001,12.8001 -10.4,4.9 -21.6,-1.8 -21.6,-13 0,-11.4001 13.6001,-18.1 23,-11.4001 z m 1228.30021,-1.6001 c 4.2999,1.8 8.3001,6.5999 9.1001,11.0001 0.9,5 -2.2,11.9001 -6.5999,14.6001 -4,2.4001 -10.7,2.6 -14.9001,0.5001 -7.0999,-3.7001 -9.3999,-15.4001 -4.2001,-21.6 4.6001,-5.5001 10.5001,-7.1 16.6,-4.5 z m -1189.40031,100.4 c 0.6001,4.9 1.1001,10.0001 1.1001,11.4001 0,2.9001 0,2.9001 -19.5001,4.7999 -14.6999,1.5001 -15.5001,1.6999 -15.5001,4 0,3.9999 4.2999,6.9998 16.3001,11.4998 13.6,5.0001 17.7,7.7001 20.5999,13.7002 1.9001,4.1 4.5,17.3999 3.6,18.9 -0.2999,0.2999 -3.4999,1 -7.2,1.2999 -3.8001,0.4 -7.9999,0.9 -9.4,1.1999 -2.4001,0.5001 -2.7,0.2002 -3.2,-3.7 -0.9,-6.5999 -3.3001,-8.9 -13,-12.5 -4.7999,-1.8 -9.7999,-3.8999 -11.0999,-4.7999 -2.3,-1.5001 -2.8,-1.1999 -23.1001,15.9999 -11.400097,9.6999 -20.900097,17.3999 -21.099897,17.2001 -0.2002,-0.2002 -0.8,-4.9 -1.4001,-10.4001 -0.6001,-5.4 -1.1999,-11.3 -1.5001,-12.9999 -0.5,-2.9002 0.2002,-3.6 14.6002,-15.5002 8.300097,-6.8 15.799997,-12.8999 16.499897,-13.5 0.7999,-0.6 1.4,-2.3 1.4,-3.8001 0,-3.0999 0.2999,-3.0999 -17.5,-1.1001 -18.999997,2.2 -18.200097,2.3 -18.899997,-2.8001 -0.2999,-2.3 -0.7999,-7.4001 -1.1999,-11.1999 l -0.6001,-6.9999 21.800097,-2.3 c 12.1,-1.3 31.4,-3.3999 42.9001,-4.7002 11.6,-1.1999 21.7001,-2.3 22.6001,-2.4001 1.3,-0.1 1.9001,1.5999 2.8001,8.7001 z m 1227.10021,4.6001 -1.2999,11.4001 -6.5999,1.1001 c -10.8,1.9 -12.1,2.2 -12.1,3.3999 0,0.6998 -0.6999,5.9 -1.5001,11.7 -2.0999,15.6999 -2.7,14.1998 7.0999,18.6001 8.3999,3.7 8.5,3.8999 8,6.9 -0.2999,1.5999 -0.8,5.7 -1.1002,9 -0.2999,3.3001 -0.7999,6.9999 -1.1001,8.3002 -0.5,2.7 0.9,3.2 -23.9,-8.7999 -24.5001,-11.8001 -40.6001,-19.5999 -51.5001,-24.7 -5.1999,-2.4998 -9.6001,-4.6 -9.8,-4.7999 -0.5,-0.5 2.0002,-23.2999 2.7,-24.1999 0.6001,-0.9 91.1999,-20.2 92.0002,-19.7 0.2001,0.2002 -0.2002,5.5001 -0.9,11.8001 z m -57.9999,87.0001 c 14,3.6 25.9999,6.5999 26.7001,6.5999 0.6998,0 1.5001,-1.5999 1.9,-3.5 0.4,-2.1999 1.1999,-3.4999 2.0999,-3.4999 2.4999,0 33.7,8.1 34.7001,9 0.7999,0.7999 -2.9999,17.7001 -4.4,19.3 -0.3999,0.3999 -4.8999,-0.4 -10.1001,-1.8 -5.1999,-1.4001 -9.5,-2.4999 -9.5,-2.4999 -0.1001,0 -0.4,1 -0.6001,2.2 -1.0001,4.3999 -15.0001,58.2998 -15.3,58.6 -0.1001,0.2001 -6.3,-1.3 -13.6001,-3.2 -7.4001,-1.9001 -26.7001,-6.9001 -42.9001,-11.0999 -16.2,-4.2001 -29.7,-7.8999 -29.9001,-8.1 -0.2001,-0.2001 0.9,-5.1001 2.4001,-10.9001 2.0001,-7.3 3.3001,-10.5001 4.2999,-10.5001 0.7999,0 16.2,3.8001 34.3,8.5 18,4.7001 33.2,8.5 33.5999,8.5 1.5001,0 8.3002,-28.1002 6.9999,-28.5001 -0.6999,-0.2002 -12.8999,-3.3999 -27.2001,-6.9999 -27.4,-6.9999 -40.7999,-10.5001 -41.3,-11.0001 -0.2999,-0.2002 4.1001,-17.9 5.3,-21.1 0.2001,-0.9 2.8,-0.5 8.7001,1.1001 4.6,1.3 19.8,5.3 33.8,8.9 z m -1228.10011,0.5998 c 2.0002,6.8 5.5001,8.3001 17.6001,7.5999 10.6999,-0.5 35.8999,-5.5 51.6999,-10.1999 1.9001,-0.6001 1.9001,-0.5 12.3001,38.0002 5.0001,18.6001 6.4001,24.9998 5.5001,25.5999 -1.1999,0.8 -76.9,21.5 -82.5001,22.6001 l -2.9999,0.5 -2.7,-10.6999 c -1.5001,-5.9 -2.5999,-10.9001 -2.4999,-11.0999 0.2001,-0.2001 15.5999,-4.4 34.3001,-9.5001 18.6001,-5 34.0999,-9.2999 34.3,-9.5 0.2002,-0.1 -0.9,-4.9 -2.4,-10.5999 l -2.7,-10.2999 -8.2001,1.8 c -23.1001,5.1001 -38.0999,6.5999 -48.1,4.8999 -14.899997,-2.5999 -20.099897,-8.1 -23.899997,-25.3 -0.6001,-2.4999 -0.2999,-2.8001 3.6,-3.8001 2.4001,-0.6001 6.299997,-1.7 8.799897,-2.4999 6.5001,-1.9001 6.5999,-1.9001 7.8998,2.4999 z m 99.4,89.1 4.6001,10.1001 -14.1999,6.5999 c -7.8001,3.7001 -18.4,8.7001 -23.5001,11.2 l -9.2999,4.5 30.1,2.9001 30.2,2.9001 4.9,10.5001 c 2.7,5.79998 4.9,10.69998 4.9,10.90008 0,0.2001 -3.7001,2.0999 -8.2001,4.2999 -4.6001,2.0999 -14.1001,6.5001 -21.2,9.9 -6.9999,3.3 -13,6.0998 -13.1001,6.0998 -0.2001,0 -6.5001,2.9999 -14.1998,6.5999 -7.6,3.6 -16.2,7.7001 -19.1002,9 l -5.2999,2.3001 -4.5,-9.6001 c -2.4999,-5.1999 -4.3999,-9.9 -4.2001,-10.4001 0.2999,-0.7999 6.9999,-4.1 42.0001,-20.5999 4.2999,-2.0001 7.6,-3.8999 7.3001,-4.1 -0.4,-0.4 -57.8999,-6.00008 -63.2002,-6.19998 -1.1001,0 -10.8,-19 -10.1001,-19.5001 0.2001,-0.1 6.1999,-2.9001 13.2999,-6.1999 24.3,-11.2 33.9999,-15.8 50,-23.5001 8.7999,-4.2001 16.4999,-7.7 17.1,-7.7 0.6001,-0.1001 3.1,4.3999 5.6999,10.0001 z m 1076.29991,-2.9999 c 8.7999,3.8999 18.6001,8.3001 21.8999,9.7999 3.3001,1.5001 14.4,6.5001 24.8001,11.0999 10.2999,4.6001 18.6999,8.7001 18.6999,9.1001 0,1 -8.9,19.9 -9.4,19.9 -0.2001,0 -10.4,-4.5 -22.7001,-10.1001 -12.3001,-5.6001 -23.9001,-10.8 -25.8001,-11.5999 l -3.3999,-1.5001 1.8,2.9001 c 1.0001,1.5001 9.4,13.2001 18.5,25.89988 9.2001,12.7 17,23.6999 17.5,24.3 0.6999,1.1999 -7.2,20.0999 -8.3999,20.0999 -0.6001,0 -14.4,-6.2 -67.6001,-30.1 -6.0001,-2.7 -11.5999,-5.2999 -12.3001,-5.8 -1,-0.6001 -0.3999,-2.9001 2.8001,-10.1999 2.3,-5.19978 4.5,-9.69978 4.7999,-10.10008 0.4,-0.4 9.6999,3.3999 20.7,8.3001 25.6,11.59998 26.7001,12.09998 25.8999,10.79998 -0.4,-0.6001 -8,-11.59988 -17,-24.39998 -9,-12.8999 -16.4001,-23.6002 -16.4001,-23.9001 0,-0.7999 9.2001,-21.6 9.5,-21.6 0.1001,0 7.4002,3.2001 16.1,7.1 z m -45.3999,86.60008 c 6.0998,4.2999 15.5001,10.8 20.7,14.5001 5.2999,3.7 15.9001,11.0001 23.6001,16.3 7.7,5.3 14.9,10.1999 15.9001,11.0001 1.8,1.4001 1.6999,1.8 -3.3001,9.2002 -8.1,12.2 -7.8001,11.9001 -9.7999,10.1001 -1.0001,-0.9 -8.1,-5.9 -15.8001,-11.2 l -13.8999,-9.6001 -2.2,2.2 c -1.1001,1.3 -5.1001,6.7 -8.7999,11.9999 l -6.5999,9.6999 15.9999,11.0999 c 8.7999,6.0999 15.9999,11.4001 15.9999,11.7 0,0.9 -12.3001,18.2999 -12.8999,18.2999 -0.2999,-0.1001 -5.0001,-3.1 -10.3,-6.8 -5.2999,-3.7001 -20.5999,-14.3 -33.9999,-23.5001 -13.3999,-9.2001 -25.4001,-17.6 -26.7001,-18.6001 l -2.4001,-1.9001 5.8,-8.6 c 3.2,-4.7999 6.1999,-8.8999 6.7,-9.2001 0.5,-0.2999 2.0001,0.2001 3.3998,1.1001 1.3,0.9 2.9002,1.3 3.5,1.0001 0.5,-0.4 0.7999,-0.2002 0.6998,0.2999 -0.2001,0.6001 4.2001,4.2001 9.6001,7.9999 l 9.9,6.9999 8.3999,-11.8001 c 4.5,-6.5001 8.3002,-12.0999 8.3002,-12.3001 0,-0.2999 -5.6002,-4.3999 -12.3999,-9.1 -6.9001,-4.7999 -12.8001,-9 -13.1,-9.6001 -0.2999,-0.5001 1.5998,-4 4.2998,-7.8001 2.7,-3.7001 5.5001,-7.8001 6.0999,-9 0.6001,-1.1999 1.4,-2.2 1.7,-2.2 0.2999,0 5.5,3.4999 11.5999,7.7 z m -986.30001,2.9999 6.0001,9.2001 -4.7001,3.3999 c -2.5999,1.8 -8.6,6.0001 -13.3999,9.2001 l -8.7001,5.8 7.9999,11.8001 c 4.3999,6.5999 8.5,11.9001 9,11.9001 0.6001,0 6.5999,-3.8001 13.5,-8.5 6.8,-4.7001 12.8001,-8.5 13.2001,-8.5 0.7999,0.1001 12.2,17.5 12.2,18.6999 0,0.4 -6.1999,4.9 -13.7999,10.0001 -7.4999,5 -23.7999,15.9001 -36.2001,24.3 -12.3999,8.3999 -22.7999,15.4 -23.1999,15.5999 -0.6001,0.4 -11.3,-15.0999 -12.3001,-17.7999 -0.2999,-0.7999 5.3,-5.1999 13.6001,-10.8 7.8001,-5.1999 14.9,-10.1999 15.9999,-11.0001 1.6999,-1.4 1.4,-2.0999 -6.4001,-13.6001 l -8.3001,-12.2 -16.3001,11.0001 c -9,6.0999 -16.5999,10.5999 -16.9999,10.1001 -2.0999,-3.0999 -10.9001,-15.9998 -11.4001,-16.9999 -0.5,-0.7999 5.6999,-5.5001 17.5,-13.6001 10.1001,-6.8 26.6,-18.1 36.7999,-24.9998 10.1999,-6.9001 18.7999,-12.5 19.1999,-12.3999 0.2999,0.1001 3.3999,4.2999 6.7,9.4 z m 45.1999,100.8 c -10.0001,9.7999 -18,17.8999 -17.7999,18.1001 0.2001,0.2001 12.6,-2.4999 27.6001,-6.0999 15.0001,-3.6 28.1001,-6.5001 29.0001,-6.5001 0.9,0 5.1999,3.6 9.6001,8.1 l 8,8.1 -32.0001,31.2998 -32,31.4 -7.7,-7.7001 c -7.8999,-7.8001 -8.9,-9.5 -6.4001,-10.9 2.0999,-1.1999 37.8,-36.4 37.4,-36.8 -0.2001,-0.2001 -13.7999,2.9999 -30.3001,7.1 -16.4999,3.9999 -30.7,7.4001 -31.6,7.4001 -0.8,0 -4.7999,-3.3001 -8.7999,-7.3001 l -7.2,-7.2 11.3,-11.0001 c 6.3,-6.0999 20.8001,-20.0999 32.1999,-31.2999 l 20.9001,-20.4001 8,8 7.9999,7.9999 -18.2001,17.7001 z m 915.30001,-1.1001 c 10.1999,6.0001 16.4001,16.8998 15.3,27.3999 -1.0001,9.1001 -4.5,14.6999 -20.8001,32.3 -8.2,9 -15.4,16.4001 -15.9001,16.4001 -0.5,0 -5.7999,-4.5 -11.7,-10.0001 -5.9,-5.5 -17.3001,-16.0999 -25.3,-23.5 -8,-7.4002 -17.6001,-16.3001 -21.3001,-19.7 -3.7001,-3.3998 -6.7,-6.5999 -6.7,-6.9998 0,-0.4 3.3001,-4.4 7.4001,-8.7999 l 7.3001,-7.9999 4.3999,3.8999 c 2.4001,2.1999 7.8999,7.3 12.3001,11.3 l 7.8001,7.4001 9.6999,-10 c 12.1,-12.5 17.5,-15.4001 26.7999,-14.8 4.2998,0.2999 7.5999,1.3 10.6999,3.1 z m -84.7999,49.3001 c 32.6002,42.9001 37.5001,49.6001 37.1002,50.6002 -0.2002,0.6 -4.1001,3.9999 -8.7001,7.4999 -8.1,6.1999 -8.3999,6.3 -9.9,4.3999 -0.9,-1.1001 -10.5999,-13.7999 -21.5,-28.3 -11.0001,-14.5 -20.0999,-26.6 -20.1999,-26.7998 -0.2999,-0.3 -14.0001,9.5 -16.8001,11.9999 -0.5001,0.3999 2.5999,6.0001 6.9001,12.3998 25.0999,37.7 26.7001,54.4 6.8,68.3 -1.8,1.1999 -3.6,2.1999 -4,2.1999 -0.9,-0.1 -11.0001,-13.1 -11.9001,-15.4 -0.2999,-0.9 -0.1001,-1.5999 0.5,-1.5999 0.6999,0 2.3001,-1.1001 3.6,-2.4999 6.8001,-6.6999 1.1002,-19.8 -23.2999,-53.3001 -4.1,-5.6999 -7.0999,-10.6999 -6.5999,-11.0999 2.4001,-2.2 51.5001,-39.1 51.9999,-39.1 0.1,0 7.3,9.2999 15.9998,20.7 z m -752.10011,-8.4999 c 4.6001,3.4999 8.3999,6.6999 8.5,7.0999 0,0.5 -2.9001,4.5 -6.4001,9 -12.8999,16.6 -14.7999,21.6 -10.6999,28.3 1.6999,2.8 13,11.4001 14.8,11.4001 0.5,-0.1001 3.2,-3.3001 6.1999,-7.3001 2.9999,-4 8.3999,-11.0999 11.9999,-15.8 l 6.5999,-8.7001 4,2.8 c 2.2,1.5001 6.4001,4.6001 9.2999,6.9001 l 5.1999,4.1001 -15.7,20.8 c -8.6,11.4001 -18.1001,23.8 -20.9999,27.6999 -2.9001,3.8001 -7.6,10.1001 -10.5001,13.7999 -2.9001,3.8001 -5.6001,7.4001 -6.0001,7.9999 -0.6999,1.1002 -7.8999,-3.4999 -15.3,-9.6998 l -3.8999,-3.3001 9.6999,-12.8002 9.6999,-12.8001 -7.7001,-4.2999 c -9.3999,-5.4 -15.4,-10 -19.1999,-14.6999 -5.5,-6.9001 -6.5001,-17.4999 -2.4999,-25.2 2.4001,-4.6 22.6001,-31.5 23.7,-31.5 0.3999,0 4.5,2.8001 9.2001,6.2 z m 92.6,61.4999 26.7001,13.7001 -3.8999,7.8999 c -2.2,4.2998 -4.2999,7.7 -4.7999,7.4999 -0.4,-0.2002 -8,-4 -16.8999,-8.6001 l -16.2,-8.3001 -3.2,6.5001 c -1.8,3.6 -2.9999,6.7 -2.7,6.9001 0.2001,0.2999 6.3,3.3999 13.3999,6.9999 18.6001,9.4 17.3999,7.8999 12.8999,16.8999 l -3.8001,7.5999 -15.8001,-7.8998 -15.8,-7.8999 -4.7001,9.5 c -2.6,5.1999 -4.5,9.6001 -4.2999,9.8 0.2999,0.2999 7.3001,3.9999 15.5001,8.2 8.3002,4.2999 15.5999,8.2001 16.3001,8.7999 1.0001,0.7999 0.4,2.4001 -2.4001,7.6 -2.0001,3.6 -3.8999,6.9998 -4.3999,7.4001 -0.4,0.5 -5.0001,-1.4 -10.1002,-4.1 -5.1998,-2.7 -16.5999,-8.6001 -25.4001,-13 -8.7999,-4.5 -16.6,-8.6 -17.3999,-9.1001 -1.3,-0.9 -1.4,-0.6998 31.7999,-65.3 4.2001,-8.1 7.8001,-14.8 8,-14.8 0.2001,0 12.4999,6.2 27.2001,13.7002 z m 562.80021,-4.6001 c 9.9,2.2 18.6001,9.2001 25.4999,20.2 11.1999,18.1 12.9999,33.3 5.6001,48.3998 -7.4001,15.0001 -29.8001,26.5 -46.3,23.6002 -9,-1.5001 -15.4,-4.9 -22.20011,-11.8001 -6.5999,-6.7 -11.4001,-14.1001 -14.6999,-23.1001 -1.8,-4.7999 -2.3,-7.9999 -2.3,-16.8999 0,-10 0.2001,-11.4998 2.8001,-16.5999 5.6999,-11.7 21.70001,-22.9 35.49991,-24.8001 5.9001,-0.7999 8.7999,-0.6001 16.1,1.0001 z m -80.70011,39.9002 c 1.4,4.3999 2.3,8.2001 2.0001,8.3999 -0.4,0.2001 -9.2001,3.2 -19.6999,6.5999 -10.4001,3.4999 -19.1999,6.4001 -19.4001,6.7 -0.2999,0.2001 0.5001,3.4999 1.8,7.4001 2.6,8.1 0.9,7.8001 16.6,2.9001 13.5,-4.2001 22.1,-4.3999 29.0999,-0.6001 8.3999,4.6001 13.3999,14.0001 13.3999,25.3001 0,11.2 -5.6001,19.5001 -16.9999,25.3001 -5.2999,2.5999 -42.9001,15.5001 -43.4999,14.7999 -0.6001,-0.6999 -28.1999,-84.3001 -27.9,-84.6 0.4,-0.6001 58.9,-20.0001 60.4001,-20.0999 1.1001,-0.1 2.4001,2.4001 4.2001,7.8999 z m -407.7,-3.5002 c 9.2999,1.9 21.8001,8.3001 28.2999,14.2999 6.0001,5.6001 6.0001,5.1001 1.1999,17.5 -1.5998,3.8999 -3.4999,7.3 -4.2998,7.4999 -0.8,0.2001 -2.9002,-2.2 -4.9,-5.5001 -3.7001,-5.9 -5.6001,-7.8999 -11.7,-12.2 -4.7999,-3.5 -15.1999,-4.1 -20.7,-1.3 -8.3001,4.2999 -15.0001,14.3 -17.5,26.1 -3.8999,19.0001 11.4999,33.0999 31.1001,28.5001 12.8999,-2.9999 12.3998,-2.9999 11.5999,-0.1001 -0.2999,1.4001 -2.0001,6.2 -3.7001,10.7 l -3.2,8.3001 -11.0999,-0.5 c -9.2999,-0.5001 -12.3999,-1.1001 -19.1999,-3.7001 -19.4,-7.4999 -29.4001,-20.7 -29.4001,-38.8 0,-18.9 11.7,-40.1001 26.3001,-47.4001 9.6001,-4.9 16.1,-5.6999 27.2002,-3.3999 z m 60.0001,20.1002 c 5,0.7999 9.2999,1.8 9.6998,2.1999 0.2999,0.4 -0.6998,7.8999 -2.3,16.7001 -1.5001,8.7998 -2.8001,16.5999 -2.9001,17.2 0,0.8 1.3,1.3 3.3999,1.3 4.2998,0 7.0999,-2.5999 15.5001,-14.1999 9.4,-13.2001 15.9999,-16.2 29.9999,-13.7999 3.8999,0.6001 7.0999,1.5001 7.0999,1.8 0,0.2999 -0.6998,4.7001 -1.5998,9.6999 l -1.7,9.1 -5.6001,-0.2999 c -6.7,-0.3999 -6.7,-0.3999 -14.9,10.4001 -3.5,4.6 -6.8001,8.3001 -7.4002,8.3001 -1.6999,0 -0.5,3.2 10.5999,27.6999 8.1,18.1 10.0001,23.2999 8.7001,23.2999 -3.3999,0 -24.5001,-4 -25.0999,-4.7001 -0.4,-0.5 -4.4,-9.4 -9,-20.0001 -7.1,-16.4999 -8.6001,-19.1999 -10.7,-19.5999 -1.4,-0.2001 -2.5999,0.1 -2.8,0.6999 -0.2002,0.6001 -1.5999,8.3001 -2.9999,17.1 -1.5001,8.7998 -2.9999,16.3 -3.3999,16.5999 -0.6001,0.6999 -20.9999,-2.7 -21.8999,-3.4999 -0.2999,-0.4 11.5999,-70.2 14.5,-84.8999 0.6001,-3.2 0.9,-3.2 12.8002,-1.1001 z m 233.4999,9.1 c 0,0.9 2.0999,20.8001 4.6001,44.1 2.4999,23.3 4.2999,42.5999 4.1,42.8001 -0.5,0.5 -15.9998,2.4 -19.8,2.4 -2.4998,0 -2.5999,-0.1 -3.8001,-11.3 -2.3,-21.6 -2.0001,-20.7 -5,-20.7 -1.4001,0 -3.3001,0.4 -4,0.9 -0.7999,0.6001 -5.6001,8.5 -10.5999,17.7999 l -9,16.8001 -13.2998,1.5001 c -8.1,1 -13.2001,1.1999 -13.2001,0.6001 0,-0.5001 4.7001,-9.2002 10.5001,-19.3 5.7999,-10.0001 10.5001,-18.6001 10.5001,-19.1001 0,-0.4 -1.5999,-1.4001 -3.6,-2.0999 -4.5,-1.5999 -10.9001,-7.8999 -12.9,-12.8002 -0.9,-2.0999 -1.9,-6.8 -2.1999,-10.5 -0.6999,-8.5 1.1999,-14.0001 6.9001,-19.7 6.8,-6.7 12.9999,-8.3001 46.2999,-11.9999 12.8999,-1.4 14.5001,-1.3 14.5001,0.6001 z m -111.4001,5.6999 c 0.2001,0.1001 17.3999,58.7002 22.8999,77.5001 2.0002,6.8 3.3999,12.4999 3.2001,12.8001 -0.2999,0.2001 -5.6001,0.1001 -11.9001,-0.2999 l -11.4001,-0.6999 -1.9001,-7.8001 c -1.0001,-4.2998 -2.2,-8.3999 -2.5999,-9.1 -0.6001,-0.9 -4.6001,-1.1999 -14.5001,-1.3 h -13.7001 l -1.3,4 c -0.7999,2.1999 -2.0999,5.9 -2.9999,8.2 l -1.5999,4.2999 h -10.8 c -6.0001,0 -11.0999,-0.4 -11.4001,-0.7999 -0.3999,-0.6001 27.8,-75.6 32.4,-86.0001 1.0001,-2.4 1.1002,-2.4 13.2999,-1.6999 6.7,0.4 12.3001,0.7999 12.3001,0.9 z"
     style="fill:#047fcc;fill-rule:evenodd"
     id="path2" />
  <path
     d="m 668.55529,99.520818 c -5.6001,0.600102 -8.7999,2.300002 -11.0001,5.799902 -2.4001,3.8002 -2.4999,6.4001 -0.6001,11.0002 2.3,5.2999 6.3,6.8 15.8,6.0001 l 8,-0.6999 -0.6001,-6.2 c -1.9001,-17.799802 -1.5001,-16.599902 -5.0001,-16.400102 -1.6999,0 -4.7001,0.2999 -6.5999,0.5001 z"
     style="fill:#047fcc;fill-rule:evenodd"
     id="path4" />
  <path
     d="m 573.15529,136.42082 c -0.2999,4.2001 -0.6001,10.5001 -0.6001,14 v 6.1999 l 7.6,-2.3 c 4.2001,-1.3 7.8001,-2.5999 8.1,-2.8001 0.2001,-0.2999 -2.9001,-5.5 -6.9999,-11.5999 l -7.4001,-11.0999 z"
     style="fill:#047fcc;fill-rule:evenodd"
     id="path6" />
  <path
     d="m 795.35549,102.82092 c -5.1998,4.6 -8.2,10.5998 -9.9,20.4001 -3.4999,20.4001 5.6999,34.7 20.8001,32.2999 10.6999,-1.8 17.6,-14.1999 17.7001,-32.1999 0.1001,-8.6 -0.2001,-10.6999 -2.2,-14.7999 -3.2,-6.4001 -8.7998,-9.699902 -16.4001,-9.699902 -5,0 -5.9,0.3999 -10.0001,3.999902 z"
     style="fill:#047fcc;fill-rule:evenodd"
     id="path8" />
  <path
     d="m 883.65529,150.72072 c -3.4999,13.3999 -4.1,16.4999 -3.3999,17.1 0.6999,0.6999 5.6999,2.0001 12.7001,3.4999 7.0999,1.5001 13.6001,-3.8001 13.6001,-11.0999 0,-3.7 -0.5001,-4.7001 -3.2001,-6.8 -1.8,-1.3 -6.8,-3.3001 -11.0001,-4.3999 l -7.8001,-2.0002 z"
     style="fill:#047fcc;fill-rule:evenodd"
     id="path10" />
  <path
     d="m 1066.8553,214.62072 c -5.6001,4.7999 -10.1999,8.8999 -10.1999,9.2001 -0.1,0.5001 14.1001,9.2002 14.3,8.7999 0.6999,-1.5001 6.5999,-26.1 6.4,-26.3999 -0.2001,-0.2001 -4.8999,3.6 -10.5001,8.3999 z"
     style="fill:#047fcc;fill-rule:evenodd"
     id="path12" />
  <path
     d="m 538.55529,379.42082 c -1.4,0.2001 -4.7001,0.9 -7.4999,1.5001 -3.2,0.6001 -8.7998,0.6998 -15.5001,0.2001 -12.2,-0.9 -31.2001,-0.1001 -39.1,1.6999 -30.0999,6.8001 -44.2,15.0001 -51.1999,29.7 -2.9001,6.2 -3.2,7.6 -3.2,16.8001 0,8.9 0.2999,10.5999 2.5999,15.0001 1.8,3.3001 4.4,6.2 7.8001,8.6 2.8001,1.9001 6.1999,4.6001 7.4999,5.8 4.6001,4.4 8.6,13.6001 11.0999,25.8001 2.0999,10.3 2.9001,16.7 4.9,38.4999 0.9,8.8999 6.9999,17.1 15.1999,20.4999 3.6,1.5001 4.4,2.3 4.4,4.3999 0,1.5001 2.0001,6.5001 4.3999,11.3 3.1,6.0999 4.6001,10.5001 5,14.4 0.8,7.8999 2.2,13.5 5.6002,21.8002 1.5998,3.9999 3.3001,10.6999 3.8999,14.7999 2.0001,14.3 7.4001,20.4999 20.0999,23.1001 4.5,0.9 5.6001,1.5999 5.7999,3.3001 0.2999,2.0001 -0.1,2.2 -3.9999,2.2 -13.2999,0 -24.8001,9 -28.1002,22.1 -1.1999,4.7001 -1.6999,5.2999 -5.2999,6.5001 -5.1001,1.7 -12.3999,9.6001 -14.6999,15.9999 -1.0001,2.9999 -1.6999,7.8001 -1.6999,12.3999 0,9.2001 2.7,15.7 8.8999,21.3001 3.6,3.3001 13.2999,8.6 18.2001,10.1001 1.1999,0.2999 1.7,2.0999 2.0999,7.3001 0.8,11.4998 4.7999,16.8998 17,23.6999 7.2,3.8999 10.5998,7.4999 13.7001,14.6999 3.6,8.1 3.6,10.8 0.1001,20.9999 -2.7,7.8001 -3.3001,11.4001 -3.8999,22.5 l -0.6999,13.2001 -3.8001,4.2001 c -7.8001,8.6 -12.1,22.8999 -10.5001,34.2 2.0001,13.6 15.9001,18.5 26.3999,9.3999 1.6999,-1.4 3.2,-2.5999 3.4999,-2.5999 1.1001,0.1001 4.7999,3.8001 9.2999,9.2999 7.7,9.5 10.4,15.9999 14.8,36 3.8001,16.6 6.4,25.0999 16.3,51.9999 4.7002,12.8999 4.7002,14.6999 -0.6998,20.7 -6.0001,6.5999 -8,13.39988 -7.4999,24.79998 0.6001,14.6001 6.5001,24.5001 17.2,29.3 6.0001,2.6 11.8001,2.3001 25.1,-1.6999 5,-1.4 9.6998,-2.8001 10.5001,-3.1 1,-0.2999 3.8001,2.8001 8.2,9 11.9999,16.7001 19.3,21.8002 29.3,20.3001 4.8,-0.8 9.6001,-4.6001 15.5002,-12.3999 l 2.4998,-3.3999 10.4001,1.5999 c 10.1999,1.5999 41.1001,8.3999 42.0999,9.2999 0.2001,0.2001 -0.4,2.7 -1.4001,5.6001 -2.4999,6.7 -3.2,19.0001 -1.5999,25.8999 3.6,15.3 13.6001,25.8999 24.5002,25.8001 4.1,-0.1001 10.5998,-4.1 18.2001,-11.2 22.7999,-21.3001 48.8999,-28.4 83.3,-22.6 12.7001,2.0999 15.5999,4.2998 25.7001,19.8 6.4,9.7999 19.6999,25.4999 25.3,29.9999 7.3001,5.7999 12.7001,7.0999 20.2,4.7999 5.5001,-1.5999 9.2999,-5.9001 12.8999,-14.6999 5.6001,-13.7002 11.0999,-26.6001 11.4999,-27 0.2001,-0.2002 3.2,0.9 6.5999,2.4998 5.2999,2.4001 7.5999,2.9002 14.2999,2.9002 6.9001,0 8.9,-0.4 14.6999,-3.2001 19.50011,-9.2001 24.30001,-27.6001 11.8001,-45.7999 -1.7,-2.4001 -2.9999,-4.6001 -2.9999,-5 0,-0.2999 1.5001,-1.9001 3.3999,-3.6 5.00001,-4.2999 8.49991,-10.8 9.20011,-17.2001 0.3999,-2.9999 -0.1001,-14.1001 -1.1001,-24.9001 l -1.8,-19.39998 2.9999,-8.5 c 1.6999,-4.6 3.3001,-10.4 3.7,-12.8999 1.4001,-9.5 -3.4999,-20.0001 -15.59991,-33.5001 -5.9,-6.5999 -12.2,-15.9001 -15.1999,-22.6001 -7.3001,-15.8 -8.1,-34.0999 -2.6,-59.9 4.1001,-19.5999 3.8002,-23.8 -2.9001,-45.6999 -2.8,-8.8999 -7.3,-24.1999 -10.1001,-33.9999 -2.8001,-9.7999 -5.2999,-18.3999 -5.5001,-19.1001 -0.2999,-0.9 -4.5,0.8 -13.6,5.4 -7.4999,3.8001 -12.8999,7.1 -12.6,7.7 0.2001,0.6999 1.2999,4.1001 2.4998,7.7001 1.1002,3.6 5.3,16.5999 9.4,29.0001 8.7999,27.2001 9,29.7 4.1,52.4999 -4.2001,19.5001 -5.6001,34.2 -4.2998,45.6999 1.8,16.0999 7.2,26.6 20.9999,40.9 12.8001,13.2998 13.2998,14.9 13.6,39.8999 0.1001,10.6999 0.6999,23.79988 1.3,29.00008 0.6001,5.1999 1.1001,11.9999 1.1001,15.0001 0,5.4 -0.1,5.6999 -4.6,9.3999 -5.8,4.9 -8.3002,10.3 -8.3999,17.9 0,6.7 1.5001,10.6999 7.2,19.5999 l 4.2001,6.3 -2.4001,1.8 c -4.2999,3.2 -6.8001,2.9999 -15.3,-1.1002 -6.3,-2.9999 -9.2999,-3.8999 -13.4,-3.8999 -11.9999,0 -18.2999,6.7 -27.9,29.8001 -2.0999,5.1001 -4.1,9.1001 -4.5,9 -1.5999,-0.6001 -15.1999,-18.4 -18.2001,-23.6999 -7.2,-13 -20.4999,-22.2001 -36.6999,-25.6 -10.5001,-2.2 -36.7999,-3.1 -46.6999,-1.5999 -9.4,1.5001 -20.3,4.7999 -29.7,9 -8,3.6 -22.7001,13 -27.2999,17.3999 -1.8,1.7 -3.5,2.8001 -3.8001,2.4999 -1.7,-1.5999 -0.5001,-10.6999 2.0999,-16.3 5.5,-11.9002 3.6,-22.7999 -5.1001,-28.7 -9.9,-6.8 -58.7002,-17.7001 -73.5999,-16.4999 -7.7,0.6999 -11.9001,2.4001 -16.9999,7.4001 l -3.6,3.3999 -3,-3.8001 c -1.5998,-2.0999 -4.6,-6.3 -6.5001,-9.2999 -4.7001,-7.3001 -9.2001,-11.6 -13.5,-13.1 -4.6,-1.5001 -12.4999,-0.6001 -18.3999,2.0001 -2.4999,1.1001 -7.4002,2.8 -10.9001,3.7 -7.4999,1.9001 -8.5,1.3 -8.5,-5.6001 0,-4.2999 0.5001,-5.4 3.7001,-8.7001 4,-4.1 7.2,-10.50008 8.3001,-16.49988 1.1999,-6.1999 -1.4,-17.5 -8.1,-35.5 -6.9999,-18.9 -9.7999,-28.5998 -13.7999,-46.9 -4.2999,-19.7 -10.1999,-31.5 -22.2999,-44.3999 -7.2,-7.7001 -16.8001,-14.0001 -21.2,-14.0001 -2.7,0 -2.5999,-0.2001 0.5,-5.1 4.4,-6.9999 5.6002,-11.8001 6.0001,-24.4001 0.4,-9.9 1.0001,-13.5 3.5,-20.4999 3.3998,-9.9 3.8999,-20.3 1.2999,-29.0999 -4.2001,-14.2999 -14.5,-27.6999 -25.7,-33.4001 l -5.8,-2.9999 0.6999,-5 c 1.0001,-6.7 0.6001,-11.2 -1.1001,-14.5001 -2.0999,-4.1 -8,-8.7998 -12.7001,-10.1001 -8.7001,-2.4001 -10.4,-2.9001 -13.6,-4.8999 -2.7,-1.5999 -3.3001,-2.6 -3,-4.8 0.3,-2.7 0.3,-2.7 7.4002,-2.4 6.5001,0.2999 7.3,0.1 10.2999,-2.3001 6.2,-5.2999 6.9001,-8.7999 4.5,-22.2999 l -0.6001,-3.2 8.5,0.6001 c 10.1999,0.7999 13.7001,-0.4 19.0001,-6.5999 l 3.3999,-4 4.3999,2.4001 c 9.4,5.1999 22.6001,6.4001 29.4999,2.7 9.6998,-5.1998 12.7,-10.5998 13.2001,-24.4 0.6998,-16.1 -3.3001,-28.8 -14.4,-45.2999 -6.0001,-9.1001 -13.2001,-15.0999 -23.6999,-19.9001 -7.1,-3.3001 -19.0001,-5.8 -24.5002,-5.1999 -3.4999,0.4 -4.3999,0.1001 -5.2999,-1.5999 -0.9,-1.5998 -0.7999,-2.1999 0.6999,-2.9999 5.7999,-3.2 9.1,-10.9 7.8998,-18.3999 -0.9,-6.2 3.7001,-15.7 9.8,-20.0002 12.4999,-8.7 13.2999,-28.1999 2.1999,-50.5 -3.3,-6.5001 -3.3,-6.7 -2.0001,-11.9999 4.4,-17.1 3.8999,-30.2001 -1.6999,-41.4 -2.7,-5.3 -2.9999,-6.8001 -2.2,-9.6001 0.9,-3.1 1.1999,-3.3001 6.0001,-3.6 10.6999,-0.6001 22.1,6.3 24.4001,14.8 2.4998,9.2999 4.3999,13.6 7.4001,16.4001 7.2,6.6999 16.4999,8.2 29.0999,4.6 10.6999,-3.0999 17.7999,-4.1 27.5,-4.1 10.5001,0 16.6,1.4 24.2,5.4 11.0001,5.6999 18.2001,15.5001 23.7999,32.5001 1.5999,4.5 4.2999,10.6999 6.0999,13.6 4.7999,8 16.2,21.2001 16.8001,19.5001 0.2001,-0.7999 2.3,-7.7 4.7001,-15.4 3.5,-11.7 4,-14.3 2.9002,-15.5002 -0.6999,-0.7999 -2.0999,-3.9999 -2.9999,-6.9998 -5.1001,-16.4999 -12.5,-29.9999 -20.7,-38.0999 -7.3001,-7.2 -20.8001,-14.0001 -34.3001,-17.5 -8.2001,-2.0999 -12.4999,-2.5999 -23.5001,-2.7 -11.8,-0.1001 -14.6999,0.2001 -23.2999,2.5999 -5.5001,1.5001 -10.3,2.7 -10.6999,2.7 -0.5001,0 -1.5999,-2.4001 -2.6,-5.2999 -4.3999,-13.2999 -15.5001,-23.6999 -31,-29.0999 -6.6999,-2.3 -18.3999,-3.8001 -23.4,-2.9999 z"
     style="fill:#047fcc;fill-rule:evenodd"
     id="path14" />
  <path
     d="m 834.95549,439.32082 c -16.7,2.5999 -37.8,10.5001 -51.1999,19.3 -3.4999,2.3 -8.8999,4.7999 -11.9999,5.6999 -14,4.1 -24.7,12.8001 -30.4999,24.8 -6.5999,13.7999 -10.3,33.9001 -9.4,51.7 1.1001,23.7999 7.4001,26.8999 33.5001,16.4999 7.6,-3.1 17.2001,-7.4999 21.3001,-9.9 16.0999,-9.4 31.6001,-22.9 36.2999,-31.6001 2.9999,-5.5 5.6001,-16.0999 5.6001,-23.1999 v -4.6 l 5.3,-1.1999 c 22.3999,-4.7999 41.9,-2.9999 63.6001,6.0998 25.8998,10.7 50,34.4002 59.1998,58.2999 5.7,14.6999 7.1,21.8999 7.6,38.0999 0.4,12.6 0.1001,16.6 -1.5999,25.1 -5.7999,28 -16.4001,48.0999 -33.9998,64.6999 -19.9001,18.6999 -48.3001,29.5999 -91.5999,35.2001 -10.6999,1.4 -21.1,2.4998 -23,2.4998 h -3.5 v 20.0999 20.0999 l 10.3,-0.6 c 22.9,-1.5001 49.2001,-5.6002 66.7001,-10.3 15.1999,-4.1 25.5999,-8.1 38.9999,-14.9 29.7,-15.0999 50.6999,-36.5001 66.0999,-67.5 10.59991,-21.3001 15.20001,-37.8 17.00001,-61.1 1.6999,-22.1 -0.8,-40.2999 -8.6001,-62.7001 -4.70011,-13.3999 -8.70011,-21.3001 -17.49991,-34.4001 -28.4001,-42.5001 -76.9,-68 -128.4999,-67.6001 -6.5999,0.1001 -15.7,0.6999 -20.0999,1.4001 z m -66.3001,54.4 c 8.3999,8.3999 -3.7,20.5999 -12.3001,12.3998 -3.8999,-3.7 -3.8001,-8.3999 0.1001,-12.3998 2.0001,-2.0002 3.8999,-2.9002 6.0999,-2.9002 2.2,0 4.1,0.9 6.0999,2.9002 z"
     style="fill:#fd0100;fill-rule:evenodd"
     id="path16" />
  <path
     d="m 639.85539,587.12092 c 0.2999,2.3001 1.1999,6.0001 1.9,8.2001 l 1.3,4 137.2,0.2999 137.3,0.2001 0.6001,-2.7 c 1.0001,-4.7001 2.4999,-10.6999 2.9999,-12.6 0.5,-1.5999 -6.7,-1.6999 -140.6999,-1.6999 h -141.1999 l 0.6001,4.2998 z"
     style="fill:#fd0100;fill-rule:evenodd"
     id="path18" />
  <path
     d="m 647.65549,613.02082 c 1.1001,2.9001 3.9999,8.8999 6.4,13.2999 19.4001,35.6 51.0001,60.5001 90.6999,71.4999 6.1999,1.7 12.7001,4 14.4,5.1001 6.0999,3.7001 6.4001,5.5001 6.4001,38.2 0,29.0001 0,29.5999 2.0999,30.2 4.2999,1.4001 25.4001,5.3 26.1,4.9 0.5,-0.2999 0.7999,-14.5001 0.7999,-31.5 0,-23.6999 0.2999,-31.7001 1.4,-34.2 2.0002,-4.9 7.8001,-9.4 14.4,-11.2 22.2999,-6.1999 37.2,-13.2001 53.7001,-25.0999 21.1,-15.3 34.8999,-32.1001 46.1999,-56.0999 2.3001,-5.1001 4.2999,-9.5 4.2999,-9.7999 0,-0.2999 -60.5001,-0.5001 -134.4999,-0.5001 h -134.5 l 2.0999,5.1999 z"
     style="fill:#fd0100;fill-rule:evenodd"
     id="path20" />
  <path
     d="m 736.55529,723.82092 c -28.4,7.4001 -44.6,26.4999 -42.6999,50.5 1.5999,20.4001 16.3,34.4999 43.2,41.4 4.3999,1.1999 18.7999,3.3999 32,5.1001 36,4.6001 47.7,8.1 48.3001,14.8 0.2999,2.7 -0.2999,3.8001 -3.2,6.4001 l -3.6,3.2 v 17.3999 17.3001 l 2.3,-0.6001 c 17.7001,-5.2999 31.7001,-15.9001 37.5999,-28.5001 2.3,-4.7999 2.5999,-6.8 2.5999,-15.9998 0,-9.9 -0.2001,-10.9001 -3.3001,-17.2001 -7.4999,-15.4001 -26.3001,-26.3001 -53.7001,-31.2001 -4.8999,-0.9 -18.6998,-3.3999 -30.7,-5.5001 -23.3,-4.2001 -30.8002,-6.6999 -30.8002,-10 0,-2.4999 3.1,-4.7002 9.8,-6.5999 l 5.1999,-1.5999 v -20.4001 -20.4999 l -2.7,0.1001 c -1.5999,0 -6.2,0.9 -10.3,1.9 z"
     style="fill:#fd0100;fill-rule:evenodd"
     id="path22" />
  <path
     d="m 766.25529,830.52092 c -0.3999,0.2999 -0.6998,13.1 -0.6998,28.3 v 27.6998 l 12.3001,2.7 c 6.6999,1.5999 13.2001,2.9999 14.5,3.3001 l 2.2,0.5001 v -28.5001 c 0,-21.5 -0.2999,-28.7 -1.1999,-29.4999 -1.1999,-1.0001 -21.3999,-5.1999 -24.9001,-5.1999 -0.9,0 -1.9001,0.2999 -2.2,0.6999 z"
     style="fill:#fd0100;fill-rule:evenodd"
     id="path24" />
  <path
     d="m 739.65529,864.32092 c -14.9,5.5001 -23.6001,14.9001 -23.5,25.4002 0.1,13.7999 6.9998,21.6 23.4,26.4999 2.9999,0.9 14.2999,2.8001 24.9998,4.1001 33.0999,4.2 41.1001,6.1999 50.9001,12.4999 4.8999,3.2 7.2,5.6999 11.3,11.9999 3.6,5.5001 5.5001,7.7 6.1999,6.9999 0.6001,-0.6001 1.3,-4.7002 1.5001,-9.1001 0.2999,-7.0999 0,-8.6 -2.4999,-13.7001 -3.3,-6.8001 -11.9999,-15.7 -19.5,-20.0001 -7.7001,-4.2999 -20.4001,-8 -35.4,-10.3 -13.7999,-2.0999 -20.0999,-3.3999 -24.9998,-4.9 l -2.9999,-1 0.2999,-15.5002 c 0.3999,-17.8999 1,-16.9999 -9.6999,-12.9999 z"
     style="fill:#fd0100;fill-rule:evenodd"
     id="path26" />
  <path
     d="m 766.05549,931.02102 c -0.2001,0.6999 -0.5,6.0001 -0.6999,11.8001 -0.3999,9 -0.7999,11.3 -3.2,16.2 -3.7001,7.7 -10.5999,13.6 -23.5001,19.9 -26.1,12.7001 -35.2,17.3001 -35.7001,18.1001 -0.2999,0.3999 34.7001,0.7999 77.8,0.7999 70.6,0 78.0001,-0.2001 76.1,-1.5001 -1.1999,-0.9 -11.9999,-6.3 -24.0001,-12.0999 -19.5,-9.6001 -22.2998,-11.2 -27.7999,-16.8001 -7.2,-7.1 -9.1001,-11.7 -10.1001,-24.4001 l -0.6999,-8.2001 -3.6,-1 c -4.1,-1.1002 -20.7,-4 -22.7999,-4 -0.6999,0 -1.5001,0.6001 -1.8,1.1999 z"
     style="fill:#fd0100;fill-rule:evenodd"
     id="path28" />
  <path
     d="m 331.55529,242.52072 c -2.5999,1.0001 -11.0001,7.4001 -11.0001,8.3999 0,0.5 2.3001,3.8999 5.1001,7.4001 l 5.1999,6.4001 2.5999,-1.8 c 8.1,-5.8 10.3,-10.3 7.7001,-15.7 -1.9001,-4.2001 -5.8,-6.0998 -9.6001,-4.7001 z"
     style="fill:#047fcc;fill-rule:evenodd"
     id="path30" />
  <path
     d="m 348.25539,271.42082 -7.4999,5.6001 6.5999,8.1 c 3.6,4.5 6.9999,8.1 7.4999,7.8999 2.3,-0.6999 11.9999,-9.8 13.3999,-12.5 3.2001,-6.3 -1.8,-14.6999 -8.7999,-14.6999 -2.9999,0 -5.2999,1.1002 -11.1999,5.6002 z"
     style="fill:#047fcc;fill-rule:evenodd"
     id="path32" />
  <path
     d="m 262.05549,308.12092 c -1.5999,0.8 -4.7001,3.3001 -6.7,5.6002 -3.4999,3.7 -3.8001,4.6 -3.8001,9.7999 0,7.8001 2.9001,13.3999 11.2,21.4999 7.9999,7.8001 15.5001,11.8001 22.2999,11.8001 14,0 21.6,-13.2001 15.0998,-26.3999 -3.2,-6.5001 -13.3999,-16.4999 -20.7,-20.2 -6.1999,-3.1 -13.2998,-3.8999 -17.3999,-2.0999 z"
     style="fill:#047fcc;fill-rule:evenodd"
     id="path34" />
  <path
     d="m 1299.7555,478.32102 c -7.3001,1.1999 -13.3999,2.4001 -13.6001,2.5999 -0.2001,0.2002 1.1999,3.7001 3.1,7.7001 l 3.3999,7.3 6.7,-6.0001 c 6.5999,-5.7999 15.0998,-14.1998 14.1998,-14 -0.2999,0.1001 -6.5001,1.1999 -13.7999,2.4001 z"
     style="fill:#047fcc;fill-rule:evenodd"
     id="path36" />
  <path
     d="m 1339.1554,557.32092 c -5.6999,2.9999 -6.7,7.0999 -4.6001,17.2 1.8,8 1.4,7.8999 13.4,4.7999 5.7999,-1.5998 10.5998,-3.2 10.5998,-3.8001 0,-0.5 -0.9,-4 -2.0001,-7.8001 -3.2,-10.5999 -9.6001,-14.4 -17.3999,-10.4 z"
     style="fill:#047fcc;fill-rule:evenodd"
     id="path38" />
  <path
     d="m 1345.5554,794.42082 c -6.9001,1.3 -13.1,2.4999 -13.8999,2.6 -0.8,0.2001 4.5,2.9999 11.7,6.1999 7.3,3.2 13.3999,5.6999 13.6,5.5001 0.6001,-0.6999 2.2,-16.8999 1.5999,-16.8001 -0.2999,0 -6.0999,1.1999 -13,2.4998 z"
     style="fill:#047fcc;fill-rule:evenodd"
     id="path40" />
  <path
     d="m 1197.1555,1156.6208 c -3.2,0.6999 -6.9001,3.3999 -11.8001,8.7999 l -4.7001,5 4.7001,4.5 c 2.6,2.4001 6.2,5.8 8,7.4001 l 3.2,2.9002 3.6,-3.5 c 9.2001,-8.7001 11.0999,-16.3 5.4,-21.8001 -3.3001,-3.1 -5.4,-3.8999 -8.3999,-3.3001 z"
     style="fill:#047fcc;fill-rule:evenodd"
     id="path42" />
  <path
     d="m 1009.1556,1255.3209 c -8.1,4.9 -10.50011,14.1001 -6.7,25.3001 6.5001,19.1999 19.3,30.6 30.6,27.2001 15.3,-4.6001 17.7999,-20.6 6.0999,-39.8001 -8.5,-13.9 -20.0002,-18.9 -29.9999,-12.7001 z"
     style="fill:#047fcc;fill-rule:evenodd"
     id="path44" />
  <path
     d="m 933.05549,1325.0209 c -3.3001,1.1001 -6.3,2.4001 -6.8,2.7 -0.4,0.3999 0.6999,4.7001 2.3,9.6998 1.7,4.9 3.3001,9.4 3.5,10.1002 0.6998,2.0001 15.5999,-4.2001 18.9,-7.8001 2.4998,-2.8001 2.8,-3.8002 2.3,-7.8001 -1.0001,-8.9 -7.8001,-11.2 -20.2,-6.9001 z"
     style="fill:#047fcc;fill-rule:evenodd"
     id="path46" />
  <path
     d="m 808.55529,1318.8209 c -6.3,0.8 -11.4998,3.2001 -12.9999,5.9001 -0.5001,1.1001 -1.0001,3.8001 -1.0001,6.0998 0,8.3002 3.8001,11.0002 15.9001,11.0002 4.3999,0 8.2001,-0.4 8.5,-0.9 0.2999,-0.4 0,-5.8 -0.6001,-11.9999 -1.0001,-9 -1.5001,-11.1 -2.7,-11.0002 -0.9,0.1001 -4.1,0.5001 -7.1,0.9 z"
     style="fill:#047fcc;fill-rule:evenodd"
     id="path48" />
  <path
     d="m 708.55559,1345.521 c -2.4999,6.9999 -4.6001,13 -4.7999,13.4 -0.2999,0.6001 15.8,1.9 16.5999,1.2999 0.5001,-0.2999 -5.6999,-24.4 -6.6999,-26.1 -0.2999,-0.6998 -2.7,4.5 -5.1001,11.4001 z"
     style="fill:#047fcc;fill-rule:evenodd"
     id="path50" />
</svg>
